<svg id="OBJECTS" xmlns="http://www.w3.org/2000/svg" viewBox="0 0 640 430"><defs><style>.cls-1,.cls-18,.cls-20,.cls-22,.cls-23,.cls-24,.cls-3,.cls-4,.cls-5,.cls-8,.cls-9{fill-rule:evenodd}.cls-1{opacity:.05}.cls-3{fill:#efefef}.cls-4{fill:#e5e5e5}.cls-5{fill:#d8d8d8}.cls-6,.cls-7{fill:none;stroke-width:.5px}.cls-6{stroke:#eaeaea;stroke-miterlimit:10}.cls-7{stroke:#dbdbdb;stroke-linejoin:bevel}.cls-26,.cls-8{fill:#753bbd}.cls-9{fill:#5e2f97}.cls-10,.cls-22{fill:#fff}.cls-11{fill:#89ae43}.cls-12{fill:#78963b}.cls-13{fill:#add761}.cls-14{fill:#c6e885}.cls-28{fill:#778285}.cls-18,.cls-29{fill:#a6afb2}.cls-27{fill:#94a0a4}.cls-20{fill:#d4d9dd}.cls-23{fill:#dce1e6}.cls-24{fill:#caccce}</style></defs><path class="cls-1" d="M632.83 281.44l-78.93-77.67a29 29 0 00-19.18-7.06h-64L276.23 77.85 12.12 238.8a29.45 29.45 0 001.6 48.71l234.62 134.17a63.06 63.06 0 0069.92-4.88l52.34-40.54a121 121 0 0185.22-24.84L566 361.56a35.46 35.46 0 0032.25-12.48l35.81-43.21a18.09 18.09 0 00-1.23-24.43z"/><path d="M632.83 257.39l-78.93-77.68a29 29 0 00-19.18-7.06h-64L276.23 53.79l-264.11 161a29.46 29.46 0 001.6 48.72l234.62 134.11a63.06 63.06 0 0069.92-4.88l52.34-40.54a121 121 0 0185.22-24.84L566 337.5a35.46 35.46 0 0032.26-12.5l35.81-43.2a18.09 18.09 0 00-1.24-24.41z" fill="#ba9dde" fill-rule="evenodd"/><path class="cls-1" d="M611.32 276.47L482 269.93a5.49 5.49 0 01-3.94-9l23.81-28.6a5.52 5.52 0 014.5-2l128.39 6.5a5.49 5.49 0 014 9l-24.4 29.31a3.68 3.68 0 01-3.04 1.33zM574.94 316.12l-118.59-6a5.07 5.07 0 01-3.65-8.31l22-26.42a5.07 5.07 0 014.16-1.82l118.59 6c4.1.59 5.34 6.48 2.95 8.86l-21.3 25.87a5.07 5.07 0 01-4.16 1.82z"/><path class="cls-1" d="M583.35 269.43l-102.45-5.18a6.09 6.09 0 01-4.37-10l17.25-20.72a6.06 6.06 0 015-2.19l102.44 5.18a6.09 6.09 0 014.38 10l-17.25 20.72a6.14 6.14 0 01-5 2.19z"/><path class="cls-3" d="M606.9 244.82l-107.88-5.45 24.75-29.73 107.88 5.46-24.75 29.72z"/><path class="cls-4" d="M518.64 238.9l-15.78-.8 6.88-8.26c8.71.44 12.7 4.5 8.9 9.06zM518.4 219.44l6.88-8.27 15.78.8c-3.8 4.57-13.95 7.91-22.66 7.47zM612 215.56l15.78.8-6.88 8.27c-8.71-.45-12.7-4.5-8.9-9.07zM612.27 235l-6.88 8.26-15.78-.8c3.8-4.56 13.95-7.9 22.66-7.46zM523.26 238.74l-1.39-.07 21.79-26.17 1.39.07-21.79 26.17zM587.01 241.97l-1.39-.07 21.79-26.18 1.39.07-21.79 26.18zM606.9 244.82v22.62l24.75-30.04v-22.3l-24.75 29.72z"/><path class="cls-5" d="M499.02 239.38v22.24l107.88 5.82v-22.62l-107.88-5.44z"/><path class="cls-6" d="M499.02 240.54l107.88 5.5M499.02 239.82l107.88 5.51M499.02 241.37l107.88 5.51M499.02 242.21l107.88 5.5M499.02 243.04l107.88 5.51M499.02 243.88l107.88 5.5M499.02 244.71l107.88 5.51M499.02 245.54l107.88 5.51M499.02 246.38l107.88 5.51M499.02 247.21l107.88 5.51M499.02 248.05l107.88 5.51M499.02 248.88l107.88 5.51M499.02 249.72l107.88 5.51M499.02 250.55l107.88 5.51M499.02 251.39l107.88 5.5M499.02 252.22l107.88 5.51M499.02 253.06l107.88 5.5M499.02 253.89l107.88 5.51M499.02 254.72l107.88 5.51M499.02 255.56l107.88 5.51M499.02 256.39l107.88 5.51M499.02 257.23l107.88 5.51M499.02 258.06l107.88 5.51M499.02 258.9l107.88 5.51M499.02 259.73l107.88 5.51M499.02 260.57l107.88 5.5M499.02 261.4l107.88 5.51"/><path class="cls-7" d="M606.9 246.04l24.65-29.25M606.9 245.12l24.65-29.26M606.9 246.88l24.65-29.26M606.9 247.71l24.65-29.25M606.9 248.55l24.65-29.26M606.9 249.38l24.65-29.25M606.9 250.22l24.65-29.26M606.9 251.05l24.65-29.25M606.9 251.89l24.65-29.26M606.9 252.72l24.65-29.25M606.9 253.56l24.65-29.26M606.9 254.39l24.65-29.26M606.9 255.23l24.65-29.26M606.9 256.06l24.65-29.26M606.9 256.89l24.65-29.25M606.9 257.73l24.65-29.26M606.9 258.56l24.65-29.25M606.9 259.4l24.65-29.26M606.9 260.23l24.65-29.25M606.9 261.07l24.65-29.26M606.9 261.9l24.65-29.25M606.9 262.74l24.65-29.26M606.9 263.57l24.65-29.25M606.9 264.41l24.65-29.26M606.9 265.24l24.65-29.26M606.9 266.07l24.65-29.25M606.9 266.91l24.65-29.26"/><path class="cls-8" d="M578.66 243.4l-52.91-2.7 24.75-29.73 52.91 2.7-24.75 29.73z"/><path class="cls-9" d="M525.88 240.69v22.23l52.78 3.1v-22.61l-52.78-2.72z"/><path class="cls-10" d="M568.19 230.89a9 9 0 01-5.78 1.74l-.88 1.35a1.14 1.14 0 01-1 .4l-1.34-.08c-.37 0-.54-.25-.38-.49l.88-1.34a5.17 5.17 0 01-3.09-1.08c-.22-.19 0-.51.38-.69l2.08-.85a1 1 0 01.86 0 2.31 2.31 0 001.24.39l2.79.18a2.15 2.15 0 001.78-.75c.24-.36.08-.71-.37-.85l-3.76-1.11c-1.63-.48-2.42-1.63-1.75-2.93.94-1.83 4.09-3.22 6.77-3.05h.11l.88-1.34a1.16 1.16 0 011-.41l1.35.09c.37 0 .54.24.38.49l-.88 1.34a5.23 5.23 0 013.08 1.07c.22.2.05.52-.37.69l-2.09.86a.93.93 0 01-.85 0 2.47 2.47 0 00-1.25-.38l-2.79-.18a2.15 2.15 0 00-1.78.74c-.23.37-.08.72.38.85l4 1.18c2.07.63 2.43 2.49.4 4.16z"/><path class="cls-3" d="M570.94 281.36l-107.88-5.46 24.75-29.73 107.88 5.46-24.75 29.73z"/><path class="cls-4" d="M482.68 275.43l-15.78-.79 6.88-8.27c8.71.44 12.7 4.5 8.9 9.06zM482.44 256l6.88-8.26 15.78.79c-3.8 4.57-14 7.91-22.66 7.47zM576.07 252.09l15.78.8-6.85 8.27c-8.71-.44-12.7-4.5-8.9-9.07zM576.31 271.56l-6.88 8.26-15.78-.8c3.8-4.56 14-7.9 22.66-7.46zM487.3 275.27l-1.39-.07 21.79-26.17 1.39.07-21.79 26.17zM551.05 278.5l-1.39-.07 21.79-26.18 1.39.07-21.79 26.18zM570.94 281.36v22.61l24.75-30.03v-22.31l-24.75 29.73z"/><path class="cls-5" d="M463.06 275.91v22.24l107.88 5.82v-22.61l-107.88-5.45z"/><path class="cls-6" d="M463.06 277.07l107.88 5.51M463.06 276.35l107.88 5.51M463.06 277.9l107.88 5.51M463.06 278.74l107.88 5.5M463.06 279.57l107.88 5.51M463.06 280.41l107.88 5.5M463.06 281.24l107.88 5.51M463.06 282.07l107.88 5.51M463.06 282.91l107.88 5.51M463.06 283.74l107.88 5.51M463.06 284.58l107.88 5.51M463.06 285.41l107.88 5.51M463.06 286.25l107.88 5.51M463.06 287.08l107.88 5.51M463.06 287.92l107.88 5.51M463.06 288.75l107.88 5.51M463.06 289.59l107.88 5.5M463.06 290.42l107.88 5.51M463.06 291.26l107.88 5.5M463.06 292.09l107.88 5.51M463.06 292.92l107.88 5.51M463.06 293.76l107.88 5.51M463.06 294.59l107.88 5.51M463.06 295.43l107.88 5.51M463.06 296.26l107.88 5.51M463.06 297.1l107.88 5.51M463.06 297.93l107.88 5.51"/><path class="cls-7" d="M570.94 282.58l24.66-29.26M570.94 281.65l24.66-29.26M570.94 283.41l24.66-29.26M570.94 284.24l24.66-29.25M570.94 285.08l24.66-29.26M570.94 285.91l24.66-29.25M570.94 286.75l24.66-29.26M570.94 287.58l24.66-29.25M570.94 288.42l24.66-29.26M570.94 289.25L595.6 260M570.94 290.09l24.66-29.26M570.94 290.92l24.66-29.25M570.94 291.76l24.66-29.26M570.94 292.59l24.66-29.26M570.94 293.43l24.66-29.26M570.94 294.26L595.6 265M570.94 295.09l24.66-29.25M570.94 295.93l24.66-29.26M570.94 296.76l24.66-29.25M570.94 297.6l24.66-29.26M570.94 298.43l24.66-29.25M570.94 299.27l24.66-29.26M570.94 300.1l24.66-29.25M570.94 300.94l24.66-29.26M570.94 301.77l24.66-29.25M570.94 302.61l24.66-29.26M570.94 303.44l24.66-29.26"/><path class="cls-8" d="M542.7 279.93l-52.91-2.7 24.75-29.73 52.91 2.7-24.75 29.73z"/><path class="cls-9" d="M489.93 277.22v22.23l52.78 3.1v-22.61l-52.78-2.72z"/><path class="cls-10" d="M532.23 267.42a9 9 0 01-5.78 1.74l-.88 1.35a1.18 1.18 0 01-1 .41l-1.34-.09c-.37 0-.54-.25-.38-.49l.88-1.34a5.17 5.17 0 01-3.09-1.08c-.22-.19 0-.51.38-.69l2.08-.85a1 1 0 01.86 0 2.31 2.31 0 001.24.39l2.79.18a2.14 2.14 0 001.78-.75c.24-.36.09-.71-.37-.84l-3.76-1.12c-1.63-.48-2.42-1.63-1.75-2.93.94-1.83 4.09-3.22 6.77-3.05h.11l.88-1.34a1.16 1.16 0 011-.41l1.35.09c.37 0 .54.24.38.49l-.88 1.34a5.23 5.23 0 013.08 1.07c.22.2 0 .52-.37.69l-2.09.86a.93.93 0 01-.85 0 2.43 2.43 0 00-1.25-.38l-2.78-.18a2.15 2.15 0 00-1.78.74c-.24.37-.09.72.37.85l4 1.18c2.07.63 2.43 2.49.4 4.16z"/><path class="cls-3" d="M589.9 222.09l-107.87-5.45 24.75-29.73 107.87 5.46-24.75 29.72z"/><path class="cls-4" d="M501.64 216.17l-15.78-.8 6.88-8.26c8.72.44 12.7 4.5 8.9 9.06zM501.4 196.71l6.88-8.26 15.79.79c-3.81 4.57-14 7.91-22.67 7.47zM595 192.83l15.78.8-6.88 8.27c-8.72-.45-12.7-4.5-8.9-9.07zM595.28 212.3l-6.88 8.26-15.78-.8c3.8-4.56 13.94-7.9 22.66-7.46zM506.26 216.01l-1.39-.07 21.79-26.17 1.39.07-21.79 26.17zM570.02 219.24l-1.39-.07L590.42 193l1.39.06-21.79 26.18zM589.9 222.09v22.62l24.75-30.03v-22.31l-24.75 29.72z"/><path class="cls-5" d="M482.03 216.65v22.24l107.87 5.82v-22.62l-107.87-5.44z"/><path class="cls-6" d="M482.03 217.81l107.87 5.51M482.03 217.09l107.87 5.51M482.03 218.64l107.87 5.51M482.03 219.48l107.87 5.5M482.03 220.31l107.87 5.51M482.03 221.15l107.87 5.5M482.03 221.98l107.87 5.51M482.03 222.81l107.87 5.51M482.03 223.65l107.87 5.51M482.03 224.48l107.87 5.51M482.03 225.32l107.87 5.51M482.03 226.15l107.87 5.51M482.03 226.99l107.87 5.51M482.03 227.82l107.87 5.51M482.03 228.66l107.87 5.5M482.03 229.49L589.9 235M482.03 230.33l107.87 5.5M482.03 231.16l107.87 5.51M482.03 231.99l107.87 5.51M482.03 232.83l107.87 5.51M482.03 233.66l107.87 5.51M482.03 234.5l107.87 5.51M482.03 235.33l107.87 5.51M482.03 236.17l107.87 5.51M482.03 237l107.87 5.51M482.03 237.84l107.87 5.51M482.03 238.67l107.87 5.51"/><path class="cls-7" d="M589.9 223.32l24.66-29.26M589.9 222.39l24.66-29.26M589.9 224.15l24.66-29.26M589.9 224.98l24.66-29.25M589.9 225.82l24.66-29.26M589.9 226.65l24.66-29.25M589.9 227.49l24.66-29.26M589.9 228.32l24.66-29.25M589.9 229.16l24.66-29.26M589.9 229.99l24.66-29.25M589.9 230.83l24.66-29.26M589.9 231.66l24.66-29.25M589.9 232.5l24.66-29.26M589.9 233.33l24.66-29.26M589.9 234.16l24.66-29.25M589.9 235l24.66-29.26M589.9 235.83l24.66-29.25M589.9 236.67l24.66-29.26M589.9 237.5l24.66-29.25M589.9 238.34l24.66-29.26M589.9 239.17l24.66-29.25M589.9 240.01l24.66-29.26M589.9 240.84l24.66-29.25M589.9 241.68l24.66-29.26M589.9 242.51l24.66-29.26M589.9 243.35l24.66-29.26M589.9 244.18l24.66-29.26"/><path class="cls-8" d="M561.67 220.67l-52.91-2.7 24.75-29.73 52.91 2.7-24.75 29.73z"/><path class="cls-9" d="M508.89 217.96v22.23l52.78 3.1v-22.61l-52.78-2.72z"/><path class="cls-10" d="M551.19 208.16a9 9 0 01-5.77 1.74l-.89 1.35a1.12 1.12 0 01-1 .4l-1.35-.08c-.37 0-.54-.25-.38-.49l.88-1.34a5.16 5.16 0 01-3.08-1.08c-.22-.19 0-.51.37-.69l2.09-.85a1 1 0 01.85 0 2.37 2.37 0 001.25.39l2.79.18a2.15 2.15 0 001.78-.75c.23-.36.08-.71-.38-.84l-3.71-1.1c-1.63-.48-2.42-1.63-1.76-2.93.94-1.83 4.1-3.22 6.78-3h.1l.88-1.34a1.18 1.18 0 011-.41l1.34.09c.37 0 .54.24.38.49l-.88 1.34a5.24 5.24 0 013.09 1.07c.22.2.05.52-.38.69l-2.08.86a1 1 0 01-.86 0 2.4 2.4 0 00-1.24-.38l-2.79-.18a2.17 2.17 0 00-1.78.74c-.24.37-.09.72.37.85l4 1.18c2.06.56 2.42 2.42.38 4.09z"/><path class="cls-3" d="M584 252.46L476.12 247l24.75-29.73 107.88 5.46L584 252.46z"/><path class="cls-4" d="M495.74 246.53l-15.74-.79 6.88-8.27c8.71.44 12.7 4.5 8.9 9.06zM495.5 227.07l6.88-8.26 15.78.79c-3.8 4.57-13.95 7.91-22.66 7.47zM589.13 223.19l15.78.8-6.91 8.27c-8.71-.44-12.7-4.5-8.9-9.07zM589.37 242.66l-6.88 8.26-15.78-.8c3.8-4.56 13.95-7.9 22.66-7.46zM500.36 246.37l-1.39-.07 21.79-26.17 1.39.07-21.79 26.17zM564.11 249.6l-1.39-.07 21.79-26.18 1.39.08-21.79 26.17zM584 252.46v22.61l24.75-30.04v-22.3L584 252.46z"/><path class="cls-5" d="M476.12 247.01v22.24L584 275.07v-22.61l-107.88-5.45z"/><path class="cls-6" d="M476.12 248.17L584 253.68M476.12 247.45L584 252.96M476.12 249L584 254.51M476.12 249.84l107.88 5.5M476.12 250.67L584 256.18M476.12 251.51l107.88 5.5M476.12 252.34L584 257.85M476.12 253.18l107.88 5.5M476.12 254.01L584 259.52M476.12 254.84L584 260.35M476.12 255.68L584 261.19M476.12 256.51L584 262.02M476.12 257.35L584 262.86M476.12 258.18L584 263.69M476.12 259.02L584 264.53M476.12 259.85L584 265.36M476.12 260.69l107.88 5.5M476.12 261.52L584 267.03M476.12 262.36l107.88 5.5M476.12 263.19L584 268.7M476.12 264.02L584 269.53M476.12 264.86L584 270.37M476.12 265.69L584 271.2M476.12 266.53L584 272.04M476.12 267.36L584 272.87M476.12 268.2L584 273.71M476.12 269.03L584 274.54"/><path class="cls-7" d="M584 253.68l24.66-29.26M584 252.75l24.66-29.26M584 254.51l24.66-29.26M584 255.34l24.66-29.25M584 256.18l24.66-29.26M584 257.01l24.66-29.25M584 257.85l24.66-29.26M584 258.68l24.66-29.25M584 259.52l24.66-29.26M584 260.35l24.66-29.25M584 261.19l24.66-29.26M584 262.02l24.66-29.25M584 262.86l24.66-29.26M584 263.69l24.66-29.25M584 264.53l24.66-29.26M584 265.36l24.66-29.26M584 266.19l24.66-29.25M584 267.03l24.66-29.26M584 267.86l24.66-29.25M584 268.7l24.66-29.26M584 269.53l24.66-29.25M584 270.37l24.66-29.26M584 271.2l24.66-29.25M584 272.04l24.66-29.26M584 272.87l24.66-29.25M584 273.71l24.66-29.26M584 274.54l24.66-29.26"/><path class="cls-8" d="M555.76 251.03l-52.91-2.7 24.75-29.73 52.91 2.7-24.75 29.73z"/><path class="cls-9" d="M502.99 248.32v22.23l52.77 3.1v-22.61l-52.77-2.72z"/><path class="cls-10" d="M545.29 238.52a9 9 0 01-5.78 1.74l-.88 1.35a1.18 1.18 0 01-1 .41l-1.34-.09c-.37 0-.54-.25-.38-.49l.88-1.34a5.17 5.17 0 01-3.09-1.08c-.22-.19-.05-.51.38-.69l2.08-.85a1 1 0 01.86 0 2.31 2.31 0 001.24.39l2.79.18a2.15 2.15 0 001.78-.75c.24-.36.09-.71-.37-.84l-3.76-1.12c-1.63-.48-2.42-1.63-1.75-2.93.94-1.83 4.09-3.22 6.77-3.05h.11l.88-1.34a1.16 1.16 0 011-.41l1.35.09c.37 0 .54.24.38.49l-.88 1.34a5.16 5.16 0 013.08 1.08c.22.19 0 .51-.37.68l-2.09.86a.93.93 0 01-.85 0 2.47 2.47 0 00-1.25-.38l-2.79-.18a2.15 2.15 0 00-1.78.75c-.23.36-.08.71.38.84l4 1.18c2.11.64 2.43 2.49.4 4.16z"/><path class="cls-11" d="M410.86 221.82l13.64-7.64v-10.24l-13.64 7.64v10.24z"/><path class="cls-12" d="M410.86 221.82l-158.58-93.85v-10.24l158.58 93.85v10.24z"/><path class="cls-13" d="M265.86 110.11l158.59 93.86-13.59 7.61-158.58-93.85 13.58-7.62z"/><path class="cls-13" d="M291.82 121.18A11.14 11.14 0 11280.68 110a11.14 11.14 0 0111.14 11.18z"/><path class="cls-14" d="M287.18 116.54a4.65 4.65 0 11-4.65-4.64 4.65 4.65 0 014.65 4.64z"/><path class="cls-11" d="M282.77 127.52a11.12 11.12 0 01-11-13.06 11.14 11.14 0 008.88 17.86 11.15 11.15 0 0011-9.21 11.14 11.14 0 01-8.88 4.41z"/><path class="cls-13" d="M354.71 157.76a11.14 11.14 0 11-11.14-11.14 11.14 11.14 0 0111.14 11.14z"/><path class="cls-14" d="M350.06 153.12a4.64 4.64 0 11-4.64-4.64 4.64 4.64 0 014.64 4.64z"/><path class="cls-11" d="M345.66 164.11a11.13 11.13 0 01-11-13.07 11.14 11.14 0 1019.85 8.65 11.15 11.15 0 01-8.85 4.42z"/><path class="cls-13" d="M417.59 195.05a11.14 11.14 0 11-11.13-11.13 11.13 11.13 0 0111.13 11.13z"/><path class="cls-14" d="M413 190.41a4.64 4.64 0 11-4.64-4.64 4.63 4.63 0 014.64 4.64z"/><path class="cls-11" d="M408.55 201.4a11.13 11.13 0 01-11-13.07 11.13 11.13 0 1019.87 8.67 11.11 11.11 0 01-8.87 4.4z"/><path d="M451.55 216.74L285 110.32a29.51 29.51 0 00-31.16-.37L39 240.06a13.55 13.55 0 00.18 23.29L226.4 372.83a13.56 13.56 0 0013.91-.13l73.6-45a8.63 8.63 0 019.6.4l9.72 7.13a7 7 0 007.88.3l64.23-39.92a7 7 0 00.2-11.83 8.63 8.63 0 01.11-14.4l46-29.83a13.56 13.56 0 00-.1-22.81z" fill-rule="evenodd" opacity=".05"/><path fill="#778285" fill-rule="evenodd" d="M225.68 314.49L90.27 233.13v15.41l135.41 81.37v-15.42z"/><path class="cls-18" d="M389.25 216.26L253.84 134.9 90.27 233.13l135.41 81.36 163.57-98.23z"/><path fill="#94a0a4" fill-rule="evenodd" d="M389.25 216.25l-163.57 98.28v15.38l163.57-98.28v-15.38z"/><path class="cls-3" d="M366.25 208.69l-114.58-68.84-138.4 83.11 114.58 68.85 138.4-83.12z"/><path class="cls-20" d="M366.25 79.11L251.67 10.26v142.67l114.58 68.85V79.11z"/><path fill="#bdbfc1" fill-rule="evenodd" d="M346.19 104.19l-107.25 64.39v104.1l107.25-62.97V104.19z"/><path class="cls-22" d="M366.25 208.68l-138.4 83.16v13.02l138.4-83.17v-13.01z"/><path class="cls-20" d="M227.85 162.19L113.27 93.34v142.67l114.58 68.85V162.19z"/><path class="cls-23" d="M238.94 168.58l-11.09 6.65v116.61l11.09-6.7V168.58z"/><path class="cls-22" d="M366.25 92.08l-11.1 6.66v116.61l11.1-6.7V92.08z"/><path class="cls-23" d="M297.32 125.69v-5.75l15.28-9.19v5.76l-15.28 9.18z"/><path class="cls-3" d="M323.87 117.22l-11.13-6.57-15.28 9.18 11.12 6.57 15.29-9.18zM323.89 228.67l-11.15-6.85-15.28 9.18 11.28 6.78 15.15-9.11z"/><path class="cls-20" d="M308.74 237.77l-11.4-6.77v5.48l11.4 6.85v-5.56zM308.74 126.61l-11.4-6.78v5.48l11.4 6.85v-5.55z"/><path class="cls-20" d="M311.58 130.34l-10.02-2.9v102.05l10.02 6.03V130.34z"/><path class="cls-24" d="M311.58 130.34l-2.84 1.82-7.18-4.16 10.06 8.05-.04-5.71z"/><path class="cls-23" d="M323.82 234.26l-15.08 9.07v-5.55l2.88-1.73V130.34l-3.04 1.82v-5.76l15.29-9.18v5.76l-2.92 1.75v105.71l2.87-1.73v5.55z"/><path class="cls-22" d="M323.82 234.26l-15.08 9.07v-5.55l2.88-1.73V130.34l-3.04 1.82v-5.76l15.29-9.18v5.76l-2.92 1.75v105.71l2.87-1.73v5.55z"/><path class="cls-23" d="M325.03 108.81v-5.76l15.28-9.18v5.76l-15.28 9.18z"/><path class="cls-3" d="M351.58 100.34l-11.12-6.57-15.28 9.18 11.12 6.57 15.28-9.18zM351.6 211.78l-11.15-6.84-15.28 9.18 11.28 6.77 15.15-9.11z"/><path class="cls-20" d="M336.45 220.89l-11.39-6.77v5.47l11.39 6.85v-5.55zM336.45 109.72l-11.39-6.77v5.48l11.39 6.85v-5.56z"/><path class="cls-20" d="M339.3 113.45l-10.03-2.89v102.05l10.03 6.02V113.45z"/><path class="cls-24" d="M339.3 113.45l-2.85 1.83-7.18-4.16 10.06 8.04-.03-5.71z"/><path class="cls-23" d="M351.54 217.38l-15.09 9.06v-5.55l2.88-1.73V113.45l-3.03 1.83v-5.76l15.28-9.18v5.75l-2.92 1.76v105.71l2.88-1.73v5.55z"/><path class="cls-22" d="M351.54 217.38l-15.09 9.06v-5.55l2.88-1.73V113.45l-3.03 1.83v-5.76l15.28-9.18v5.75l-2.92 1.76v105.71l2.88-1.73v5.55z"/><path class="cls-23" d="M267.31 143.53v-5.76l15.28-9.18v5.76l-15.28 9.18z"/><path class="cls-3" d="M293.86 135.06l-11.12-6.57-15.28 9.18 11.12 6.57 15.28-9.18zM293.88 246.51l-11.15-6.85-15.28 9.18 11.28 6.77 15.15-9.1z"/><path class="cls-20" d="M278.73 255.61l-11.4-6.77v5.48l11.4 6.85v-5.56zM278.73 144.44l-11.4-6.77v5.48l11.4 6.85v-5.56z"/><path class="cls-20" d="M281.57 148.18l-10.02-2.9v102.05l10.03 6.02-.01-105.17z"/><path class="cls-24" d="M281.57 148.18l-2.84 1.82-7.18-4.16 10.06 8.05-.04-5.71z"/><path class="cls-23" d="M293.82 252.1l-15.09 9.07v-5.56l2.88-1.73v-105.7l-3.03 1.82v-5.76l15.28-9.18v5.76l-2.92 1.75v105.71l2.88-1.73v5.55z"/><path class="cls-22" d="M293.82 252.1l-15.09 9.07v-5.56l2.88-1.73v-105.7l-3.03 1.82v-5.76l15.28-9.18v5.76l-2.92 1.75v105.71l2.88-1.73v5.55z"/><path class="cls-23" d="M235.85 162.5v-5.75l15.28-9.19v5.76l-15.28 9.18z"/><path class="cls-3" d="M262.4 154.03l-11.12-6.57-15.28 9.18 11.12 6.57 15.28-9.18zM262.42 265.48l-11.15-6.85-15.28 9.18 11.28 6.78 15.15-9.11z"/><path class="cls-20" d="M247.27 274.58l-11.4-6.77v5.48l11.4 6.85v-5.56zM247.27 163.42l-11.4-6.78v5.48l11.4 6.85v-5.55z"/><path class="cls-20" d="M250.12 167.15l-10.03-2.9V266.3l10.03 6.03V167.15z"/><path class="cls-24" d="M250.12 167.15l-2.85 1.82-7.18-4.16 10.06 8.05-.03-5.71z"/><path class="cls-23" d="M262.36 271.07l-15.09 9.07v-5.55l2.88-1.73V167.15l-3.03 1.82v-5.76l15.28-9.18v5.76l-2.92 1.75v105.71l2.88-1.73v5.55z"/><path class="cls-22" d="M262.36 271.07l-15.09 9.07v-5.55l2.88-1.73V167.15l-3.03 1.82v-5.76l15.28-9.18v5.76l-2.92 1.75v105.71l2.88-1.73v5.55z"/><path class="cls-22" d="M366.25 79.06l-138.4 83.16v13.01l138.4-83.16V79.06zM238.94 168.58l-11.09 6.65v116.61l11.09-6.7V168.58z"/><path class="cls-3" d="M366.25 79.11L251.67 10.26l-138.4 83.12 114.58 68.84 138.4-83.11z"/><path class="cls-22" d="M190.8 184.52L293.16 63.99l102.37-2.48L190.8 184.52z"/><path fill="#eaeaea" fill-rule="evenodd" d="M186.7 0h106.28l102.55 61.51-102.37 2.48L186.7 0z"/><path class="cls-3" d="M293.16 63.97L186.71.01 84.34 120.5l106.46 63.96L293.16 63.97z"/><path class="cls-23" d="M354.95 80.04l-121.1 72.76v-3.37l121.1-72.76v3.37z"/><path class="cls-20" d="M233.85 152.8l-4.37-2.62v-3.37l4.37 2.62v3.37z"/><path class="cls-3" d="M233.85 149.43l-4.37-2.62 121.1-72.77 4.37 2.63-121.1 72.76z"/><path class="cls-8" d="M321.41 99.26l-54.02 32.46v-1.5l54.02-32.47v1.51z"/><path class="cls-26" d="M271.51 106.25l6-3.59a5.52 5.52 0 012.29-1c.78 0 1.14.59 1.14 2a3.89 3.89 0 01-.67 2.47 5.13 5.13 0 01-1.12 1.16c1.53-.73 2-.37 2 1.51 0 2.35-.88 3.67-3.5 5.25l-6.15 3.69zm5 1.73c1.06-.65 1.14-.72 1.37-1a2 2 0 00.43-1.42c0-1-.24-1-1.31-.4l-2.8 1.68v2.52zm-.08 4.66c1.79-1.08 2.12-1.48 2.12-2.59 0-.79-.14-1-.53-1-.23 0-.28.08-1.3.68l-2.52 1.51V114zM284.34 108l-.64 2.47-2.76 1.66 3.64-13.7 4-2.4 3.7 9.3-2.73 1.64-.66-1.7zm2.28-8.79l-1.69 6.49 3.4-2zM303.58 98.5l-4.49 2.7-2.54-4a23.49 23.49 0 01-1.1-2.08l-.37-.7-.1.06c.07 1.55.1 2.74.1 3.6v5.58l-2.6 1.56V93.66l4.45-2.66 2.4 3.89a24.11 24.11 0 011.21 2.11l.4.71.1-.06v-.88c-.07-1.25-.07-1.41-.07-2.63v-5.6l2.61-1.54zM307.48 89.16l1-.59 3.37-6.57 3.23-1.94-4.35 8.25 4.75 3-3.3 2-3.7-2.51-1 .61v4.73l-2.66 1.59V86.24l2.66-1.6z"/><path class="cls-27" d="M287.36 331.64l-21.26 12.78v-8.67l21.26-12.78v8.67z"/><path class="cls-28" d="M266.37 344.42l-21.27-12.78v-8.67l21.27 12.78v8.67z"/><path class="cls-29" d="M266.37 335.78L245.1 323l20.98-12.81 21.27 12.78-20.98 12.81z"/><path class="cls-13" d="M278.2 318.23a11.14 11.14 0 11-11.14-11.14 11.14 11.14 0 0111.14 11.14z"/><path class="cls-14" d="M273.56 313.59a4.64 4.64 0 11-4.64-4.64 4.64 4.64 0 014.64 4.64z"/><path class="cls-11" d="M269.15 324.58a11.13 11.13 0 01-11-13.07 11.13 11.13 0 1019.85 8.65 11.12 11.12 0 01-8.85 4.42z"/><path class="cls-27" d="M407.78 254.26l-21.27 12.78v-8.67l21.27-12.78v8.67z"/><path class="cls-28" d="M386.79 267.04l-21.27-12.78v-8.67l21.27 12.78v8.67z"/><path class="cls-29" d="M386.79 258.41l-21.27-12.78 20.98-12.82 21.27 12.78-20.98 12.82z"/><path class="cls-13" d="M398.62 240.86a11.14 11.14 0 11-11.14-11.14 11.13 11.13 0 0111.14 11.14z"/><path class="cls-14" d="M394 236.21a4.64 4.64 0 11-4.64-4.64 4.65 4.65 0 014.64 4.64z"/><path class="cls-11" d="M389.57 247.2a11.13 11.13 0 01-11-13.07 11.14 11.14 0 1019.85 8.66 11.11 11.11 0 01-8.85 4.41zM210.44 355.9l13.64-7.64v-10.24l-13.64 7.64v10.24z"/><path class="cls-12" d="M210.44 355.9L51.86 262.05v-10.24l158.58 93.85v10.24z"/><path class="cls-13" d="M65.45 244.2l158.58 93.85-13.59 7.61-158.58-93.85 13.59-7.61z"/><path class="cls-13" d="M91.4 255.26a11.14 11.14 0 11-11.14-11.14 11.14 11.14 0 0111.14 11.14z"/><path class="cls-14" d="M86.76 250.62a4.64 4.64 0 11-4.64-4.62 4.64 4.64 0 014.64 4.62z"/><path class="cls-11" d="M82.35 261.61a11.13 11.13 0 01-11-13.07 11.14 11.14 0 1019.85 8.65 11.15 11.15 0 01-8.85 4.42z"/><path class="cls-13" d="M154.29 291.84a11.14 11.14 0 11-11.14-11.13 11.14 11.14 0 0111.14 11.13z"/><path class="cls-14" d="M149.65 287.2a4.64 4.64 0 11-4.64-4.64 4.64 4.64 0 014.64 4.64z"/><path class="cls-11" d="M145.24 298.19a11.13 11.13 0 01-11-13.07 11.14 11.14 0 1019.85 8.66 11.14 11.14 0 01-8.85 4.41z"/><path class="cls-13" d="M217.18 329.14A11.14 11.14 0 11206 318a11.13 11.13 0 0111.18 11.14z"/><path class="cls-14" d="M212.54 324.5a4.64 4.64 0 11-4.64-4.65 4.64 4.64 0 014.64 4.65z"/><path class="cls-11" d="M208.13 335.48A11.14 11.14 0 01197 324.34a11.26 11.26 0 01.17-1.93 11.14 11.14 0 1019.83 8.66 11.14 11.14 0 01-8.87 4.41z"/><path class="cls-18" d="M388.32 286.38l-45.26-27.2-54.66 32.83 45.25 27.2 54.67-32.83z"/></svg>