<svg id="OBJECTS" xmlns="http://www.w3.org/2000/svg" viewBox="0 0 640 430"><defs><style>.cls-3{opacity:.05}.cls-4{fill:#753bbd}.cls-5{fill:#5e2f97}.cls-7{fill:#d4d9dd}.cls-8{fill:#f1f1f1}.cls-9{fill:#efefef}.cls-10{fill:#dce1e6}.cls-11{fill:#fff}.cls-12{fill:#c8d9de}.cls-13{fill:#8c979d}.cls-14{fill:#e4e7ea}.cls-15{fill:#b3b9bc}.cls-17{fill:#94a0a4}.cls-18{fill:#778285}.cls-19{fill:#d6d6d6}.cls-22{fill:#582ba0}.cls-26{fill:#add761}.cls-27{fill:#c6e885}.cls-28{fill:#89ae43}</style></defs><path d="M545.29 120.65a47.64 47.64 0 0147.5 47.49c0 18.62-20.37 35.38-41.53 43.48a11.85 11.85 0 00-2.61 20.75 15.12 15.12 0 01-.93 25.29L334.35 390a67.17 67.17 0 01-69.78 1.68L62.7 266.56a30.89 30.89 0 01-15.49-26.78v-28.73a30.87 30.87 0 0129.58-30.87c10.42-.42 20.45-1.66 24.09-4.66 1.87-1.55 36.2-19 79.3-40.66a441.22 441.22 0 01365.11-14.21z" opacity=".05" fill-rule="evenodd"/><path d="M545.29 94.18a47.64 47.64 0 0147.5 47.49c0 18.62-20.37 35.39-41.53 43.48a11.85 11.85 0 00-2.61 20.75 15.12 15.12 0 01-.93 25.29L334.35 363.53a67.19 67.19 0 01-69.78 1.69L62.7 240.1a30.92 30.92 0 01-15.49-26.79v-28.73a30.87 30.87 0 0129.58-30.87c10.42-.42 20.45-1.65 24.09-4.66 1.87-1.55 36.2-19 79.3-40.66a441.26 441.26 0 01365.11-14.21z" fill="#ba9dde" fill-rule="evenodd"/><g id="_Grup_" data-name="&lt;Grup&gt;"><path id="_Yol_" data-name="&lt;Yol&gt;" class="cls-3" d="M254.68 175L132 245.82a7.5 7.5 0 01-6.78 0L71.76 215c-1.87-1.08-1.87-2.83 0-3.91l122.65-70.81a7.48 7.48 0 016.77 0l53.5 30.86c1.87 1.04 1.87 2.79 0 3.86z"/><g id="_Grup_2" data-name="&lt;Grup&gt;"><g id="_Grup_3" data-name="&lt;Grup&gt;"><path id="_Yol_2" data-name="&lt;Yol&gt;" class="cls-4" d="M250.23 151.5L130.9 220.39a7.29 7.29 0 01-6.59 0l-50.08-28.91c-1.82-1-1.82-2.76 0-3.81l119.33-68.89a7.29 7.29 0 016.59 0l50.08 28.91c1.82 1.05 1.82 2.76 0 3.81z"/><path id="_Yol_3" data-name="&lt;Yol&gt;" class="cls-5" d="M210.88 133.86l9.29 5.27a2.22 2.22 0 002 .13c.49-.29.39-.8-.21-1.15l-9.3-5.27a2.22 2.22 0 00-2-.12c-.49.28-.39.79.22 1.14z"/><path id="_Yol_4" data-name="&lt;Yol&gt;" class="cls-5" d="M219.89 133.65a2.52 2.52 0 012.3 0 .7.7 0 010 1.32 2.52 2.52 0 01-2.3 0 .69.69 0 010-1.32z"/><path id="_Yol_5" data-name="&lt;Yol&gt;" class="cls-5" d="M223 140a2 2 0 011.79 0 .54.54 0 010 1 2 2 0 01-1.79 0c-.46-.23-.46-.69 0-1z"/><path id="_Yol_6" data-name="&lt;Yol&gt;" class="cls-5" d="M100.13 204.38a7.86 7.86 0 007.1 0c2-1.13 2-3 0-4.1a7.83 7.83 0 00-7.1 0c-1.96 1.14-1.96 2.97 0 4.1z"/></g><g id="_Grup_4" data-name="&lt;Grup&gt;"><path id="_Yol_7" data-name="&lt;Yol&gt;" d="M86 183.85l98.64-57a4.87 4.87 0 014.4 0l47.13 27.21a1.34 1.34 0 010 2.54l-98.65 57a4.87 4.87 0 01-4.4 0L86 186.38a1.34 1.34 0 010-2.53z" fill="#d1bdef"/></g><g id="_Grup_5" data-name="&lt;Grup&gt;"><path id="_Yol_8" data-name="&lt;Yol&gt;" class="cls-5" d="M251.6 149.6v7.4a2.27 2.27 0 01-1.36 2L130.9 227.9a6.81 6.81 0 01-3.29.78 7.09 7.09 0 01-1.22-.1 6.44 6.44 0 01-2.08-.68l-50.08-28.98a2.36 2.36 0 01-1.37-1.92v-7.31a2.43 2.43 0 001.36 1.77l1.85 1.06.76.45 47.47 27.4a6.15 6.15 0 002.07.68 7.09 7.09 0 001.22.1 6.77 6.77 0 003.3-.79l119.34-68.9a2.33 2.33 0 001.35-1.87z"/><path id="_Yol_9" data-name="&lt;Yol&gt;" class="cls-5" d="M130.9 227.85L250.23 159a2.27 2.27 0 001.36-2v-7.38a2.28 2.28 0 01-1.34 1.88L130.9 220.39a6.77 6.77 0 01-3.3.79v7.45a6.76 6.76 0 003.3-.78z"/></g><path id="_Yol_10" data-name="&lt;Yol&gt;" class="cls-3" d="M127.6 221.18v7.45a7.09 7.09 0 01-1.22-.1v-7.45a7.09 7.09 0 001.22.1z"/></g></g><path class="cls-3" d="M308.83 357.14l-156.67-90.45a4.4 4.4 0 010-7.61l213-123.41a4.4 4.4 0 014.4 0l156.67 90.46a4.39 4.39 0 010 7.6l-213 123.42a4.4 4.4 0 01-4.4-.01z"/><path class="cls-7" d="M374.19 173.39l-25.2-14.55V75.06l25.2 14.55v83.78z"/><path class="cls-8" d="M360.57 110.29l-4.35-2.51V97.11l4.35 2.51v10.67zM360.57 122.34l-4.35-2.51v-10.66l4.35 2.51v10.66zM356.36 85.06l4.35 2.51v10.66l-4.35-2.51V85.06zM351.35 82.15l4.35 2.51v10.66l-4.35-2.51V82.15zM355.7 96.73v10.67l-4.35-2.51V94.22l4.35 2.51zM355.7 119.47l-4.35-2.51v-10.67l4.35 2.51v10.67zM360.57 146.45l-4.35-2.51v-10.66l4.35 2.51v10.66zM360.57 158.51l-4.35-2.51v-10.67l4.35 2.51v10.67zM356.36 121.22l4.35 2.51v10.67l-4.35-2.51v-10.67zM351.35 118.36l4.35 2.52v10.66l-4.35-2.51v-10.67zM355.7 143.61l-4.35-2.51v-10.66l4.35 2.51v10.66zM355.7 155.69l-4.35-2.52v-10.66l4.35 2.51v10.67zM371.12 116.17l-4.35-2.51V103l4.35 2.51v10.66zM371.12 128.23l-4.35-2.51v-10.67l4.35 2.51v10.67zM366.91 90.94l4.35 2.51v10.67l-4.35-2.51V90.94zM361.9 88.03l4.35 2.51v10.67l-4.35-2.51V88.03zM366.25 102.62v10.66l-4.35-2.51V100.1l4.35 2.52zM366.25 125.35l-4.35-2.51v-10.66l4.35 2.51v10.66zM371.12 152.34l-4.35-2.52v-10.66l4.35 2.51v10.67zM371.12 164.39l-4.35-2.51v-10.66l4.35 2.51v10.66zM366.91 127.11l4.35 2.51v10.66l-4.35-2.51v-10.66zM361.9 124.25l4.35 2.51v10.67l-4.35-2.52v-10.66zM366.25 149.5l-4.35-2.51v-10.67l4.35 2.51v10.67zM366.25 161.57l-4.35-2.51v-10.67l4.35 2.52v10.66z"/><path class="cls-9" d="M386.96 82.25L361.75 67.7l-12.76 7.37 25.2 14.55 12.77-7.37z"/><path class="cls-10" d="M386.81 166.15l-12.6 7.27V89.65l12.6-7.28v83.78z"/><path class="cls-11" d="M376.24 117.29l4.35-2.51v-10.67l-4.35 2.52v10.66zM376.24 129.35l4.35-2.51v-10.67l-4.35 2.51v10.67zM380.45 92.06l-4.35 2.51v10.67l4.35-2.51V92.06zM385.46 89.15l-4.35 2.51v10.67l4.35-2.51V89.15zM381.11 103.74v10.66l4.35-2.51v-10.67l-4.35 2.52zM381.11 126.47l4.35-2.51V113.3l-4.35 2.51v10.66zM376.24 153.46l4.35-2.52v-10.66l-4.35 2.51v10.67zM376.24 165.51l4.35-2.51v-10.66l-4.35 2.51v10.66zM380.45 128.23l-4.35 2.51v10.66l4.35-2.51v-10.66zM385.46 125.37l-4.35 2.51v10.67l4.35-2.52v-10.66zM381.11 150.62l4.35-2.51v-10.67l-4.35 2.51v10.67zM381.11 162.69l4.35-2.51v-10.67l-4.35 2.52v10.66z"/><path class="cls-12" d="M386.81 85.61l-12.6 7.27v-3.23l12.6-7.28v3.24z"/><path class="cls-13" d="M374.19 92.84l-25.2-14.54v-3.24l25.2 14.55v3.23z"/><path class="cls-7" d="M348.82 188.26l-25.2-14.55V49.88l25.2 14.55v123.83z"/><path class="cls-9" d="M361.59 57.07l-25.2-14.55-12.77 7.37 25.2 14.55 12.77-7.37z"/><path class="cls-10" d="M361.45 181.03l-12.6 7.27V64.47l12.6-7.28v123.84z"/><path class="cls-12" d="M361.45 60.43l-12.6 7.27v-3.23l12.6-7.28v3.24z"/><path class="cls-13" d="M348.82 67.66l-25.2-14.55v-3.23l25.2 14.55v3.23z"/><path class="cls-11" d="M350.96 92.24l4.35-2.51V79.06l-4.35 2.52v10.66zM350.96 104.3l4.35-2.52V91.12l-4.35 2.51v10.67zM355.17 67.01l-4.35 2.51v10.67l4.35-2.52V67.01zM360.18 64.1l-4.35 2.51v10.67l4.35-2.51V64.1zM355.83 78.68v10.67l4.35-2.51V76.17l-4.35 2.51zM355.83 101.42l4.35-2.51V88.24l-4.35 2.52v10.66zM350.96 128.41l4.35-2.52v-10.66l-4.35 2.51v10.67zM350.96 140.46l4.35-2.51v-10.67l-4.35 2.51v10.67zM355.17 103.17l-4.35 2.52v10.66l4.35-2.51v-10.67zM360.18 100.32l-4.35 2.51v10.66l4.35-2.51v-10.66zM355.83 125.57l4.35-2.51v-10.67l-4.35 2.51v10.67zM355.83 137.64l4.35-2.51v-10.67l-4.35 2.51v10.67zM350.96 164.57l4.35-2.51v-10.67l-4.35 2.52v10.66zM350.96 176.63l4.35-2.52v-10.66l-4.35 2.51v10.67zM355.17 139.34l-4.35 2.51v10.66l4.35-2.51v-10.66zM360.18 136.53l-4.35 2.52v10.66l4.35-2.51v-10.67zM355.83 161.78l4.35-2.51v-10.66l-4.35 2.51v10.66zM355.83 173.86l4.35-2.52v-10.66l-4.35 2.51v10.67z"/><path class="cls-8" d="M335.03 86.12l-4.35-2.51V72.94l4.35 2.51v10.67zM335.03 98.18l-4.35-2.52V85l4.35 2.51v10.67zM330.82 60.89l4.35 2.51v10.67l-4.35-2.52V60.89zM325.81 57.98l4.35 2.51v10.67l-4.35-2.52V57.98zM330.16 72.56v10.67l-4.35-2.51V70.05l4.35 2.51zM330.16 95.3l-4.35-2.51V82.12l4.35 2.52V95.3zM335.03 122.28l-4.35-2.51v-10.66l4.35 2.51v10.66zM335.03 134.34l-4.35-2.51v-10.67l4.35 2.51v10.67zM330.82 97.05l4.35 2.51v10.67l-4.35-2.51V97.05zM325.81 94.2l4.35 2.51v10.66l-4.35-2.51V94.2zM330.16 119.45l-4.35-2.52v-10.66l4.35 2.51v10.67zM330.16 131.52l-4.35-2.51v-10.67l4.35 2.51v10.67zM335.03 158.45l-4.35-2.51v-10.67l4.35 2.51v10.67zM335.03 170.5l-4.35-2.51v-10.66l4.35 2.51v10.66zM330.82 133.22l4.35 2.51v10.67l-4.35-2.52v-10.66zM325.81 130.41l4.35 2.52v10.66l-4.35-2.51v-10.67zM330.16 155.66l-4.35-2.51v-10.66l4.35 2.51v10.66zM330.16 167.74l-4.35-2.52v-10.66l4.35 2.51v10.67zM345.58 92.01l-4.35-2.52V78.83l4.35 2.51v10.67zM345.58 104.06l-4.35-2.51V90.88l4.35 2.51v10.67zM341.38 66.77l4.35 2.51v10.67l-4.35-2.51V66.77zM336.36 63.86l4.35 2.52v10.66l-4.35-2.51V63.86zM340.71 78.45v10.66l-4.35-2.51V75.94l4.35 2.51zM340.71 101.19l-4.35-2.52V88.01l4.35 2.51v10.67zM345.58 128.17l-4.35-2.51v-10.67l4.35 2.51v10.67zM345.58 140.22l-4.35-2.51v-10.66l4.35 2.51v10.66zM341.38 102.94l4.35 2.51v10.66l-4.35-2.51v-10.66zM336.36 100.08l4.35 2.51v10.67l-4.35-2.51v-10.67zM340.71 125.33l-4.35-2.51v-10.67l4.35 2.52v10.66zM340.71 137.4l-4.35-2.51v-10.66l4.35 2.51v10.66zM345.58 164.34l-4.35-2.52v-10.66l4.35 2.51v10.67zM345.58 176.39l-4.35-2.51v-10.67l4.35 2.51v10.67zM341.38 139.1l4.35 2.52v10.66l-4.35-2.51V139.1zM336.36 136.3l4.35 2.51v10.67l-4.35-2.52V136.3zM340.71 161.55l-4.35-2.51v-10.67l4.35 2.51v10.67zM340.71 173.62l-4.35-2.51v-10.67l4.35 2.52v10.66z"/><path class="cls-7" d="M311.21 178.02l-26.04-15.04v-21.16l12.11 7 13.93 29.2z"/><path class="cls-12" d="M297.28 137.32l-12.11-6.99v11.49l12.11 7v-11.5z"/><path class="cls-7" d="M297.28 137.32l13.79-7.88v11.49l-13.79 7.89v-11.5z"/><path class="cls-9" d="M297.28 137.32l13.79-7.88-12.11-7-13.79 7.89 12.11 6.99z"/><path class="cls-14" d="M324.87 199.4l-13.66 7.88v-29.26l13.66-7.89v29.27z"/><path class="cls-10" d="M310.94 140.93l-13.66 7.89 13.93 29.39 13.66-7.89-13.93-29.39z"/><path class="cls-7" d="M311.21 207.28l-26.04-15.03v-29.27l26.04 15.04v29.26z"/><path class="cls-11" d="M311.85 145.56l-10.24 5.91 10.44 22.03 10.23-5.91-10.43-22.03z"/><path class="cls-7" d="M289.97 150.73l-26.04-15.03v-21.17l12.12 7 13.92 29.2z"/><path class="cls-15" d="M276.05 110.04l-12.12-7v11.49l12.12 7v-11.49z"/><path class="cls-7" d="M276.05 110.04l13.79-7.89v11.49l-13.79 7.89v-11.49z"/><path class="cls-9" d="M276.05 110.04l13.79-7.89-12.12-6.99-13.79 7.88 12.12 7z"/><path class="cls-10" d="M303.63 216.24l-13.66 7.88v-73.39l13.66-7.89v73.4z"/><path class="cls-11" d="M296.51 152.57l-4.35 2.51v10.67l4.35-2.51v-10.67zM292.16 177.65l4.35-2.51v-10.67l-4.35 2.52v10.66zM292.16 189.96l4.35-2.51v-10.67l-4.35 2.51v10.67zM301.63 149.75l-4.35 2.51v10.66l4.35-2.51v-10.66zM297.29 164.16v10.66l4.35-2.51v-10.66l-4.35 2.51zM297.29 187.13l4.35-2.51v-10.66l-4.35 2.51v10.66zM296.51 189.07l-4.35 2.51v10.67l4.35-2.52v-10.66zM292.16 214.15l4.35-2.52v-10.66l-4.35 2.51v10.67zM301.63 186.24l-4.35 2.51v10.67l4.35-2.51v-10.67zM297.29 211.32l4.35-2.51v-10.67l-4.35 2.52v10.66zM289.71 113.64l-13.66 7.89 13.92 29.39 13.66-7.89-13.92-29.39z"/><path class="cls-7" d="M289.97 224.12l-26.04-15.03V135.7l26.04 15.03v73.39z"/><path class="cls-8" d="M286.58 164.72l-19.25-11.12v-11.47l19.25 11.12v11.47zM286.58 177.97l-19.25-11.11v-11.47l19.25 11.11v11.47zM286.58 191.23l-19.25-11.12v-11.47l19.25 11.12v11.47zM286.58 204.48l-19.25-11.11V181.9l19.25 11.11v11.47z"/><path class="cls-7" d="M264.95 219.03L238.91 204v-21.16l12.12 6.99 13.92 29.2z"/><path class="cls-15" d="M251.03 178.34l-12.12-7v11.5l12.12 6.99v-11.49z"/><path class="cls-10" d="M251.03 178.34l13.78-7.89v11.5l-13.78 7.88v-11.49z"/><path class="cls-9" d="M251.03 178.34l13.78-7.89-12.11-6.99-13.79 7.88 12.12 7z"/><path class="cls-14" d="M278.61 229.55l-13.66 7.89v-18.41l13.66-7.88v18.4z"/><path class="cls-10" d="M264.69 181.95l-13.66 7.88 13.92 29.39 13.66-7.88-13.92-29.39z"/><path class="cls-11" d="M264.72 186.62l-10.24 5.91 10.43 22.02 10.24-5.91-10.43-22.02z"/><path class="cls-7" d="M264.95 237.44l-26.04-15.04V204l26.04 15.03v18.41z"/><path class="cls-8" d="M253.28 207.15l-3.56-2.06v-8.76l3.56 2.07v8.75zM249.22 204.8l-3.57-2.06v-8.75l3.57 2.06v8.75zM245.16 202.45l-3.57-2.06v-8.75l3.57 2.06v8.75zM257.35 219.26l-3.57-2.06v-8.76l3.57 2.07v8.75zM253.28 216.91l-3.57-2.06v-8.75l3.57 2.06v8.75zM249.22 214.56l-3.57-2.06v-8.75l3.57 2.06v8.75zM245.15 212.22l-3.57-2.06v-8.75l3.57 2.06v8.75zM257.35 229.36l-3.57-2.06v-8.76l3.57 2.07v8.75zM261.36 231.73l-3.57-2.06v-8.75l3.57 2.06v8.75zM253.28 227.01l-3.57-2.06v-8.75l3.57 2.06v8.75zM249.22 224.66l-3.57-2.06v-8.75l3.57 2.06v8.75zM245.15 222.32l-3.57-2.06v-8.76l3.57 2.07v8.75z"/><path class="cls-9" d="M436.45 168a3.94 3.94 0 01-3.57 0l-36.4-21a1.09 1.09 0 010-2.06l16.57-9.57a3.94 3.94 0 013.57 0l36.4 21a1.09 1.09 0 010 2.06z"/><path class="cls-10" d="M453 158.45L436.45 168a4 4 0 01-2.83.3v39.46a4 4 0 002.83-.3l16.55-9.54a1.25 1.25 0 00.74-1v-39.5a1.23 1.23 0 01-.74 1.03z"/><path class="cls-7" d="M433.62 207.78v-39.46a2.87 2.87 0 01-.74-.3l-36.4-21a1.28 1.28 0 01-.74-.95v39.39a1.25 1.25 0 00.74 1l36.4 21a3.44 3.44 0 001.28.4 4.32 4.32 0 01-.54-.08z"/><path class="cls-8" d="M431.19 176.04l-4.18-2.42v-4.83l4.18 2.42v4.83zM426.43 173.29l-4.19-2.42v-4.83l4.19 2.41v4.84zM421.66 170.53l-4.19-2.41v-4.84l4.19 2.42v4.83zM416.89 167.78l-4.18-2.41v-4.84l4.18 2.42v4.83zM412.13 165.03l-4.19-2.41v-4.84l4.19 2.42v4.83zM407.36 162.28l-4.19-2.42.01-4.83 4.18 2.42v4.83zM402.6 159.53l-4.19-2.42v-4.83l4.19 2.41v4.84zM431.19 182.32l-4.18-2.42v-4.83l4.18 2.41v4.84zM426.43 179.56l-4.19-2.41v-4.84l4.19 2.42v4.83zM421.66 176.81l-4.19-2.41v-4.84l4.19 2.42v4.83zM416.89 174.06l-4.18-2.41v-4.84l4.18 2.42v4.83zM412.13 171.31l-4.19-2.42v-4.83l4.19 2.42v4.83zM407.36 168.56l-4.19-2.42.01-4.83 4.18 2.41v4.84zM402.6 165.81l-4.19-2.42v-4.83l4.19 2.41v4.84zM431.19 188.59l-4.18-2.41v-4.84l4.18 2.42v4.83zM426.43 185.84l-4.19-2.41v-4.84l4.19 2.42v4.83zM421.66 183.09l-4.19-2.41v-4.84l4.19 2.42v4.83zM416.89 180.34l-4.18-2.42v-4.83l4.18 2.42v4.83zM412.13 177.59l-4.19-2.42v-4.83l4.19 2.41v4.84zM407.36 174.84l-4.19-2.42.01-4.83 4.18 2.41v4.84zM402.6 172.09l-4.19-2.42v-4.83l4.19 2.41v4.84zM431.19 194.87l-4.18-2.41v-4.84l4.18 2.42v4.83zM426.43 192.12l-4.19-2.42v-4.83l4.19 2.42v4.83zM421.66 189.37l-4.19-2.42v-4.83l4.19 2.42v4.83zM416.89 186.62l-4.18-2.42v-4.83l4.18 2.41v4.84zM412.13 183.87l-4.19-2.42v-4.83l4.19 2.41v4.84zM407.36 181.12l-4.19-2.42.01-4.83 4.18 2.41v4.84zM402.6 178.36l-4.19-2.41v-4.84l4.19 2.42v4.83zM431.19 201.15l-4.18-2.41v-4.84l4.18 2.42v4.83zM426.43 198.4l-4.19-2.42v-4.83l4.19 2.42v4.83zM421.66 195.65l-4.19-2.42v-4.83l4.19 2.41v4.84zM416.89 192.9l-4.18-2.42v-4.83l4.18 2.41v4.84zM412.13 190.15l-4.19-2.42v-4.83l4.19 2.41v4.84zM407.36 187.39l-4.19-2.41.01-4.84 4.18 2.42v4.83zM402.6 184.64l-4.19-2.42v-4.83l4.19 2.42v4.83z"/><path class="cls-11" d="M438.84 181.22l3.48-2.01v-8.53l-3.48 2.01v8.53zM442.8 178.93l3.48-2.01v-8.53l-3.48 2.01v8.53zM446.76 176.64l3.48-2.01v-8.53l-3.48 2.01v8.53zM438.84 190.74l3.48-2.01v-8.54l-3.48 2.01v8.54zM442.8 188.45l3.48-2.01v-8.53l-3.48 2.01v8.53zM446.76 186.16l3.48-2.01v-8.53l-3.48 2.01v8.53zM438.84 200.58l3.48-2.01v-8.53l-3.48 2.01v8.53zM442.8 198.29l3.48-2.01v-8.53l-3.48 2.01v8.53zM446.76 196.01l3.48-2.01v-8.53l-3.48 2v8.54z"/><path class="cls-9" d="M279.82 257a4 4 0 01-3.57 0l-36.4-21a1.09 1.09 0 010-2.06l16.57-9.57a3.94 3.94 0 013.57 0l36.41 21a1.09 1.09 0 010 2.06z"/><path class="cls-10" d="M296.4 247.46L279.82 257a4 4 0 01-2.83.29v39.46a4 4 0 002.83-.29l16.58-9.57a1.24 1.24 0 00.73-1v-39.46a1.26 1.26 0 01-.73 1.03z"/><path class="cls-7" d="M277 296.78v-39.46a3.26 3.26 0 01-.74-.29l-36.4-21a1.34 1.34 0 01-.74-1v39.39a1.24 1.24 0 00.74 1l36.4 21a3.31 3.31 0 001.28.39 3.22 3.22 0 01-.54-.03z"/><path class="cls-8" d="M241.61 249.89l7.51 4.33v-8.67l-7.51-4.33v8.67zM250.16 254.82l7.51 4.34v-8.67l-7.51-4.34v8.67zM258.71 259.76l7.51 4.33v-8.67l-7.51-4.33v8.67zM267.26 264.69l7.51 4.34v-8.67l-7.51-4.34v8.67zM241.61 260.34l7.51 4.34v-8.67l-7.51-4.34v8.67zM250.16 265.28l7.51 4.33v-8.66l-7.51-4.34v8.67zM258.71 270.22l7.51 4.33v-8.67l-7.51-4.33v8.67zM267.26 275.15l7.51 4.34v-8.67l-7.51-4.34v8.67zM241.61 271.05l7.51 4.33v-8.67l-7.51-4.33v8.67zM250.16 275.99l7.51 4.33v-8.67l-7.51-4.33v8.67zM258.71 280.92l7.51 4.34v-8.67l-7.51-4.34v8.67zM267.26 285.86l7.51 4.33v-8.67l-7.51-4.33v8.67z"/><path class="cls-11" d="M295.91 260.6l-7.51 4.34v-8.67l7.51-4.34v8.67zM287.36 265.54l-7.51 4.33v-8.67l7.51-4.33v8.67zM295.91 271.06l-7.51 4.33v-8.66l7.51-4.34v8.67zM287.36 276l-7.51 4.33v-8.67l7.51-4.33V276zM295.91 281.77l-7.51 4.33v-8.67l7.51-4.33v8.67zM287.36 286.7l-7.51 4.34v-8.67l7.51-4.34v8.67z"/><path class="cls-9" d="M412.68 203.59a3.94 3.94 0 01-3.57 0l-36.41-21a1.09 1.09 0 010-2.06l16.57-9.57a4 4 0 013.57 0l36.41 21a1.09 1.09 0 010 2.06z"/><path class="cls-10" d="M429.25 194l-16.57 9.57a4 4 0 01-2.83.3v19.74a4 4 0 002.83-.29l16.57-9.57a1.25 1.25 0 00.74-1V193a1.25 1.25 0 01-.74 1z"/><path class="cls-7" d="M409.85 223.63v-19.74a2.87 2.87 0 01-.74-.3l-36.41-21a1.27 1.27 0 01-.73-.95v19.67a1.26 1.26 0 00.74 1l36.41 21a3.38 3.38 0 001.27.4 4.52 4.52 0 01-.54-.08z"/><path d="M256.82 309.17a4.49 4.49 0 01-4 0l-41.26-23.82a1.23 1.23 0 010-2.34l18.78-10.84a4.45 4.45 0 014 0L275.6 296a1.23 1.23 0 010 2.33z" fill="#8f9b9f"/><path class="cls-17" d="M275.6 298.32l-18.78 10.85a4.51 4.51 0 01-3.21.33v6.5a4.57 4.57 0 003.21-.34l18.78-10.84a1.42 1.42 0 00.84-1.17v-6.51a1.41 1.41 0 01-.84 1.18z"/><path class="cls-18" d="M253.61 316v-6.5a3.6 3.6 0 01-.83-.33l-41.26-23.82a1.46 1.46 0 01-.83-1.09v6.44a1.41 1.41 0 00.84 1.16l41.26 23.82a3.69 3.69 0 001.44.45 4.1 4.1 0 01-.62-.13z"/><path class="cls-10" d="M271.58 277.29l-16.18 9.34a3.88 3.88 0 01-2.76.29v19.27a3.88 3.88 0 002.76-.29l16.18-9.33a1.24 1.24 0 00.72-1v-19.28a1.22 1.22 0 01-.72 1z"/><path class="cls-7" d="M252.64 306.19v-19.27a3.1 3.1 0 01-.72-.29l-35.54-20.52a1.26 1.26 0 01-.71-.93v19.2a1.23 1.23 0 00.72 1l35.54 20.51a3.12 3.12 0 001.24.39 3 3 0 01-.53-.09z"/><path class="cls-8" d="M217.76 283.69l3.57 2.06v-13.71l-3.57-2.06v13.71zM221.82 286.03l3.57 2.06v-13.71l-3.57-2.06v13.71zM225.88 288.38l3.56 2.06v-13.71l-3.56-2.06v13.71zM229.94 290.72l3.56 2.06v-13.71l-3.56-2.06v13.71zM234 293.06l3.56 2.06v-13.71l-3.56-2.05v13.7zM238.06 295.41l3.56 2.06v-13.71l-3.56-2.06v13.71zM242.12 297.75l3.56 2.06V286.1l-3.56-2.06v13.71zM246.18 286.39v13.7l3.56 2.06v-13.71l-3.56-2.05z"/><path class="cls-11" d="M257.63 291.94l3.59-2.07v-4.15l-3.59 2.07v4.15zM261.72 289.58l3.6-2.07-.01-4.15-3.59 2.07v4.15zM265.81 287.22l3.6-2.08v-4.15l-3.6 2.08v4.15zM257.63 297.05l3.59-2.08v-4.15l-3.59 2.08v4.15zM261.72 294.69l3.6-2.08-.01-4.15-3.59 2.08v4.15zM265.81 292.32l3.6-2.07v-4.15l-3.6 2.07v4.15zM257.63 302.15l3.59-2.07v-4.15l-3.59 2.07v4.15zM261.72 299.79l3.6-2.08-.01-4.15-3.59 2.08v4.15zM265.81 297.43l3.6-2.08v-4.15l-3.6 2.08v4.15z"/><path class="cls-9" d="M255.4 286.63a3.88 3.88 0 01-3.48 0l-35.54-20.52a1.06 1.06 0 010-2l16.18-9.34a3.88 3.88 0 013.48 0l35.54 20.52a1.06 1.06 0 010 2z"/><path class="cls-13" d="M315.56 199.37v26.95l25.56 14.76v-26.95l-25.56-14.76z"/><path class="cls-10" d="M327.04 274.43l62.22-35.93v-29.52l-62.22 35.93v29.52z"/><path class="cls-9" d="M315.49 199.28l28.42-16.4 45.35 26.18-62.22 35.93-22.02-12.71 33.81-19.52-23.34-13.48z"/><path class="cls-7" d="M305.02 261.73l22 12.7v-29.52l-22-12.71v29.53z"/><path class="cls-13" d="M305.02 236.04l22 12.71v-3.84l-22-12.71v3.84z"/><path class="cls-12" d="M327.04 248.75l62.22-35.93v-3.84l-62.22 35.93v3.84z"/><path class="cls-11" d="M330.09 257.54l7.27-4.19v-8.39l-7.27 4.2v8.38zM338.36 252.77l7.27-4.2-.01-8.38-7.26 4.19v8.39zM346.63 247.99l7.26-4.19v-8.39l-7.26 4.2v8.38zM354.9 243.22l7.26-4.19v-8.39l-7.26 4.19v8.39zM363.17 238.45l7.26-4.2v-8.38l-7.26 4.19v8.39zM371.44 233.67l7.26-4.19v-8.39l-7.26 4.2v8.38zM379.71 228.9l7.26-4.19v-8.39l-7.26 4.19v8.39zM330.09 267.09l7.27-4.19v-8.39l-7.27 4.2v8.38zM338.36 262.32l7.27-4.2-.01-8.38-7.26 4.19v8.39zM346.63 257.54l7.26-4.19v-8.38l-7.26 4.19v8.38zM354.9 252.77l7.26-4.19v-8.39l-7.26 4.19v8.39zM363.17 248l7.26-4.2v-8.38l-7.26 4.19V248zM371.44 243.22l7.26-4.19v-8.39l-7.26 4.2v8.38zM379.71 238.45l7.26-4.2v-8.38l-7.26 4.19v8.39z"/><path class="cls-8" d="M325.17 256.38l-5.59-3.22.01-6.45 5.58 3.22v6.45zM318.81 252.71l-5.58-3.22v-6.45l5.58 3.22v6.45zM312.45 249.04l-5.58-3.23v-6.44l5.58 3.22v6.45zM325.17 263.73l-5.59-3.23.01-6.45 5.58 3.23v6.45zM318.81 260.06l-5.58-3.23v-6.45l5.58 3.23v6.45zM312.45 256.38l-5.58-3.22v-6.45l5.58 3.23v6.44z"/><path class="cls-14" d="M362.01 300.07l66.9-38.63V229.7l-66.9 38.63v31.74z"/><path class="cls-11" d="M365.27 279.2l7.69-4.43v-8.88l-7.69 4.44v8.87zM374.03 274.15l7.68-4.44v-8.88l-7.68 4.44v8.88zM382.78 269.1l7.69-4.44v-8.88l-7.69 4.44v8.88zM391.54 264.04l7.69-4.44v-8.88l-7.69 4.44v8.88zM400.29 258.99l7.69-4.44v-8.88l-7.69 4.44v8.88zM409.05 253.93l7.69-4.44v-8.88l-7.69 4.44v8.88zM417.8 248.88l7.7-4.44-.01-8.88-7.69 4.44v8.88zM365.27 290.14l7.69-4.44v-8.88l-7.69 4.44v8.88zM374.03 285.08l7.68-4.44v-8.88l-7.68 4.44v8.88zM382.78 280.03l7.69-4.44v-8.88l-7.69 4.44v8.88zM391.54 274.97l7.69-4.44v-8.88l-7.69 4.45v8.87zM400.29 269.92l7.69-4.44v-8.88l-7.69 4.44v8.88zM409.05 264.86l7.69-4.43v-8.88l-7.69 4.44v8.87zM417.8 259.81l7.7-4.44-.01-8.88-7.69 4.44v8.88z"/><path class="cls-8" d="M407.17 210.55l-4.22-2.44v-4.86l4.22 2.43v4.87zM402.37 207.78l-4.22-2.44v-4.86l4.22 2.43v4.87zM397.57 205.01l-4.22-2.44v-4.86l4.22 2.43v4.87zM392.77 202.24l-4.21-2.44v-4.86l4.21 2.43v4.87zM387.97 199.47l-4.21-2.44v-4.87l4.21 2.44v4.87zM383.17 196.69l-4.22-2.43.01-4.87 4.21 2.44v4.86zM378.37 193.92l-4.22-2.43.01-4.87 4.21 2.44v4.86zM407.17 216.54l-4.22-2.43v-4.87l4.22 2.43v4.87zM402.37 213.77l-4.22-2.43v-4.87l4.22 2.43v4.87zM397.57 211l-4.22-2.44v-4.86l4.22 2.43V211zM392.77 208.23l-4.21-2.44v-4.86l4.21 2.43v4.87zM387.97 205.46l-4.21-2.44v-4.86l4.21 2.43v4.87zM383.17 202.69l-4.22-2.44.01-4.86 4.21 2.43v4.87zM378.37 199.92l-4.22-2.44.01-4.86 4.21 2.43v4.87z"/><path class="cls-11" d="M413.69 211.53l4.32-2.5v-4.98l-4.32 2.49v4.99zM418.61 208.69l4.31-2.5.01-4.98-4.32 2.49v4.99zM423.52 205.85l4.32-2.49v-4.99l-4.32 2.5v4.98zM413.69 217.66l4.32-2.49v-4.98l-4.32 2.49v4.98zM418.61 214.82l4.31-2.49v-4.98l-4.31 2.49v4.98zM423.52 211.99l4.32-2.5v-4.98l-4.32 2.49v4.99z"/><path class="cls-7" d="M345.72 258.91l66.91-38.63 16.28 9.41-66.9 38.62-16.29-9.4z"/><path class="cls-19" d="M345.72 290.65l16.29 9.42v-31.74l-16.29-9.42v31.74z"/><path class="cls-14" d="M361.14 264.86l60.51-34.74v-8.27l-60.51 34.75v8.26z"/><path class="cls-9" d="M350.96 250.71l60.5-34.75 10.19 5.88-60.51 34.75-10.18-5.88z"/><path fill="#a3b2b6" d="M350.96 258.97l10.18 5.89v-8.26l-10.18-5.89v8.26z"/><path class="cls-8" d="M349.11 287.36l8.39 4.85v-20.58l-8.39-4.85v20.58z"/><path class="cls-4" d="M310.14 338l.06-.06.05-.05.06-.05.05-.06.06-.06.06-.05h.06l.06-.06v-.05l.06-.05v-.06a.28.28 0 01.06-.06l.05-.05.06-.05.05-.06.06-.05h.06l.06-.06.06-.06h.06l.06-.05.05-.06.06-.05.05-.05.06-.05.06-.06.06-.05.06-.05.06-.06.06-.06.06-.05.06-.06.05-.06.06-.05.05-.05.06-.06v-.06l.06-.05h.06l.06-.06.06-.05h.06l.06-.06.06-.06.06-.05.05-.06a.28.28 0 01.06-.06l.05-.05.06-.05.06-.06.06-.06h.06l.06-.05.06-.06h.05l.06-.05.05-.06.06-.06.05-.05.06-.06a.28.28 0 00.06-.06l.06-.05.06-.05.06-.06.06-.06.06-.05.06-.05.06-.06.06-.06v-.05l.06-.06.06-.06.06-.05h.05l.06-.06.06-.05h.06l.06-.05.05-.06.06-.05.05-.05.06-.06.05-.06.06-.05.06-.05.06-.06h.06l.06-.05a.28.28 0 00.06-.06l.06-.06.06-.05.05-.05.06-.06.05-.06.06-.05.05-.06.06-.06.06-.05.06-.05.06-.06.06-.05.06-.05v-.06a.28.28 0 01.06-.06l.05-.05h.06l.05-.06.06-.06h.05l.06-.05.06-.06h.06l.06-.05.06-.06.06-.05.05-.05.06-.06.06-.06.06-.05.06-.05.06-.06.06-.06.06-.05a.28.28 0 00.06-.06l.05-.06.06-.05.05-.05.06-.06v-.06l.06-.05.06-.06.06-.06.06-.05.06-.05.06-.06.06-.06.06-.05.05-.05.06-.06.05-.05h.06l.05-.06.06-.06h.06l.06-.05.06-.06h.06l.06-.05.05-.06.06-.06.05-.05.06-.05.05-.06.06-.05.06-.05.06-.06.06-.06.06-.05.06-.05v-.06l.06-.05v-.05l.06-.06.06-.06.06-.05h.06l.06-.06.06-.06.06-.05.06-.05.06-.06.06-.05.05-.05.06-.06.05-.05h.06l.06-.06.06-.06h.06l.06-.05a.28.28 0 00.06-.06l.05-.06.06-.05.05-.06.06-.06.05-.05.06-.05a.28.28 0 00.06-.06l.06-.05.06-.05.06-.05.06-.06.06-.05.06-.05.05-.06a.28.28 0 01.06-.06l.05-.05h.06l.05-.06.06-.05h.06l.06-.06.06-.06.06-.05.06-.05.06-.06.06-.05.05-.05.06-.06.05-.06h.06l.05-.05.06-.06.06-.06.06-.05a.28.28 0 00.06-.06l.05-.06.06-.05v-.05l.06-.06v-.05l.06-.05a.28.28 0 00.06-.06l.06-.06.06-.05.06-.05.06-.06.06-.06.06-.05.05-.05a.28.28 0 01.06-.06l.05-.05h.06l.06-.06.06-.05h.06l.06-.06.06-.06.06-.05.06-.05.05-.06.06-.06.05-.05.06-.06.05-.06h.06l.06-.05.06-.06h.06v-.05l.06-.05s29.21-27.44 28-47.09-16.51-42.67-34.14-51.44c-8.83-4.38-16.58-4.36-21.95-.77h-.45l-.07.05h-.19l-.07.05h-.39l-.06.05h-.19l-.07.05h-.38l-.07.05h-.13l-.06.05h-.45l-.07.05H292.47l-.06.05h-.13l-.07.05h-.38l-.07.05h-.19l-.07.05h-.19l-.07.05h-.32l-.06.05h-.45l-.07.05h-.32l-.07.05h-.38l-.07.05H288.86l-.07.05H287.95l-.06.05H287.24l-.06.05h-.39l-.06.05h-.2l-.06.05h-.39l-.06.05h-.14l-.06.05h-.13l-.06.05h-.26l-.07.05h-.12l-.07.05h-.13l-.06.05h-.39l-.06.05h-.2l-.06.05h-.39l-.07.05h-.19l-.06.05h-.39l-.07.05h-.19l-.06.05h-.26l-.07.05h-.06l-.06.05h-.13l-.07.05h-.13l-.06.05h-.45l-.07.05h-.13l-.06.05h-.39l-.06.05h-.13l-.07.05H279.95l-.07.05h-.06c-5.4 3.56-8.43 10.69-7.81 20.53 3.5 29.93 38.13 89.07 38.13 89.07zm20.77-42.61a26.12 26.12 0 01-6.7-2.32c-13.87-6.9-25.9-25-26.86-40.47a25.46 25.46 0 01.46-7.09 25.92 25.92 0 016.7 2.33c13.87 6.89 25.89 25 26.86 40.47a26.2 26.2 0 01-.46 7.11z"/><path class="cls-5" d="M281.14 263.38c-1-15.46 9.5-22.41 23.37-15.51s25.89 25 26.86 40.47-9.5 22.4-23.37 15.51-25.89-25.02-26.86-40.47zm-6.85-4.16c1.22 19.64 35.85 78.81 35.85 78.81s29.21-27.44 28-47.09-16.53-42.67-34.14-51.43-30.94.06-29.71 19.71z"/><path class="cls-10" d="M191.84 252.51l34.04-19.65v-27.67l-15.84 9.15-18.2 38.17z"/><path class="cls-11" d="M199.61 245.32l23.68-13.68v-19.25l-11.02 6.36-12.66 26.57z"/><path class="cls-10" d="M210.04 199.31l15.84-9.14v15.02l-15.84 9.15v-15.03z"/><path class="cls-15" d="M210.04 199.31L192.01 189v15.03l18.03 10.31v-15.03z"/><path class="cls-9" d="M210.04 199.31L192.01 189l15.84-9.14 18.03 10.31-15.84 9.14z"/><path class="cls-15" d="M173.99 266.26l17.85 10.31v-24.06l-17.85-10.31v24.06z"/><path class="cls-8" d="M175.53 258.99l14.76 8.51v-13.09l-14.76-8.52v13.1z"/><path class="cls-18" d="M173.99 266.26l17.85 10.31v-5.24l-17.85-10.31v5.24z"/><path class="cls-19" d="M192.18 204.03l17.86 10.31-18.2 38.42-17.85-10.31 18.19-38.42z"/><path class="cls-8" d="M192.14 209.8l13.63 7.87-13.89 29.32-13.63-7.87 13.89-29.32z"/><path class="cls-10" d="M191.84 276.57l34.04-19.65v-24.06l-34.04 19.65v24.06z"/><path class="cls-17" d="M191.84 276.57l34.04-19.65v-5.24l-34.04 19.65v5.24z"/><path class="cls-11" d="M194.68 253.28v5.91l5.12-2.96v-5.91l-5.12 2.96zM200.57 250.01v5.91l5.12-2.96v-5.9l-5.12 2.95zM206.47 252.65l5.11-2.96v-5.9l-5.11 2.95v5.91zM212.36 249.38l5.12-2.95v-5.91l-5.12 2.95v5.91zM218.25 240.2v5.91l5.12-2.95v-5.91l-5.12 2.95zM194.68 260.98v5.9l5.12-2.95v-5.91l-5.12 2.96zM200.57 257.71v5.91l5.12-2.96v-5.91l-5.12 2.96zM206.47 260.35l5.11-2.96v-5.9l-5.11 2.95v5.91zM212.36 257.08l5.12-2.96v-5.9l-5.12 2.95v5.91zM218.25 247.9v5.91l5.12-2.95v-5.91l-5.12 2.95z"/><g id="_Grup_6" data-name="&lt;Grup&gt;"><g id="_Grup_7" data-name="&lt;Grup&gt;"><path id="_Yol_11" data-name="&lt;Yol&gt;" fill="#693aad" d="M515.99 96.73v50.91l68.59-39.6V57.13l-68.59 39.6z"/><path id="_Yol_12" data-name="&lt;Yol&gt;" class="cls-22" d="M515.99 147.64l38.8-48.35 29.79 8.75-29.41-5.65-39.18 45.25z"/><path id="_Yol_13" data-name="&lt;Yol&gt;" class="cls-22" d="M515.99 96.73l39.19 14.14 29.4-53.74-68.59 39.6z"/><path id="_Yol_14" data-name="&lt;Yol&gt;" class="cls-4" d="M515.99 96.73l39.19 11.31 29.4-50.91-68.59 39.6z"/><path id="_Yol_15" data-name="&lt;Yol&gt;" fill="#7544c1" d="M584.58 57.13l-4.9-2.83-68.59 39.6 4.9 2.83 68.59-39.6z"/><path id="_Yol_16" data-name="&lt;Yol&gt;" class="cls-5" d="M511.09 93.9v50.91l4.9 2.83V96.73l-4.9-2.83z"/><path id="_Yol_17" data-name="&lt;Yol&gt;" class="cls-3" d="M584.58 120.89l-4.9-2.82-68.59 39.6 4.9 2.82 68.59-39.6z"/></g></g><path class="cls-10" d="M451.36 242.44l39.8-22.72v-98.68l-18.31 10.57-21.49 110.83z"/><path class="cls-11" d="M456.74 233.45l31.61-18.04v-85.28l-13.04 7.54-18.57 95.78z"/><path class="cls-10" d="M472.85 114.24l18.31-10.57v17.37l-18.31 10.57v-17.37z"/><path class="cls-9" d="M472.85 114.24l18.31-10.57-14.85-8.57L458 105.67l14.85 8.57z"/><path fill="#e5e5e5" d="M472.85 114.24L458 105.67l.01 17.37 14.84 8.57v-17.37z"/><path class="cls-19" d="M436.52 233.87l14.84 8.57 21.49-110.83-14.84-8.57-21.49 110.83z"/><path class="cls-14" d="M467.53 253.99l36.37-21v-45.61l-16.92 9.77-19.45 56.84z"/><path class="cls-11" d="M487.73 211.18l4.35-2.51V198l-4.35 2.52v10.66zM492.69 208.32l4.35-2.51v-10.66l-4.35 2.51v10.66zM497.64 205.46l4.35-2.51v-10.67l-4.35 2.52v10.66zM482.78 225.94l4.35-2.51v-10.67l-4.35 2.52v10.66zM487.73 223.08l4.35-2.51v-10.66l-4.35 2.51v10.66zM492.69 220.22l4.35-2.51v-10.67l-4.35 2.52v10.66zM497.64 217.36l4.35-2.51v-10.67l-4.35 2.52v10.66zM482.78 238.25l4.35-2.51v-10.67l-4.35 2.51v10.67zM477.89 241.15l4.35-2.52v-10.66l-4.35 2.51v10.67zM487.73 235.39l4.35-2.51v-10.67l-4.35 2.51v10.67zM492.69 232.53l4.35-2.51v-10.67l-4.35 2.52v10.66zM497.64 229.67l4.35-2.51v-10.67l-4.35 2.51v10.67z"/><path class="cls-14" d="M486.97 181.1l16.93-9.78v16.06l-16.92 9.77-.01-16.05z"/><path class="cls-9" d="M473.25 173.17l16.93-9.77 13.72 7.92-16.93 9.78-13.72-7.93z"/><path class="cls-15" d="M486.97 181.1l-13.72-7.93v16.06l13.73 7.92-.01-16.05z"/><path class="cls-19" d="M453.81 246.07l13.72 7.92 19.45-56.84-13.73-7.92-19.44 56.84z"/><path class="cls-8" d="M457.58 240.5l10.6 6.12 15.02-43.9-10.6-6.12-15.02 43.9z"/><path class="cls-17" d="M377.26 311.19l69.59-40.2v-10.85l-69.59 40.2v10.85z"/><path class="cls-18" d="M377.26 311.19l-9.39-5.42v-10.85l9.39 5.42v10.85z"/><path fill="#a6afb2" d="M437.41 254.75l9.39 5.43-69.54 40.16-9.39-5.42 69.54-40.17z"/><path class="cls-26" d="M389.06 288.48a8.51 8.51 0 11-8.51-8.51 8.51 8.51 0 018.51 8.51z"/><path class="cls-27" d="M385.51 284.94a3.55 3.55 0 11-3.54-3.55 3.54 3.54 0 013.54 3.55z"/><path class="cls-28" d="M382.15 293.33a8.51 8.51 0 01-8.51-8.51 8.07 8.07 0 01.13-1.48 8.51 8.51 0 1015.16 6.66 8.48 8.48 0 01-6.78 3.33z"/><path class="cls-26" d="M415.55 273.08a8.51 8.51 0 11-8.51-8.51 8.51 8.51 0 018.51 8.51z"/><path class="cls-27" d="M412 269.54a3.55 3.55 0 11-3.54-3.55 3.55 3.55 0 013.54 3.55z"/><path class="cls-28" d="M408.63 277.93a8.51 8.51 0 01-8.51-8.51 9 9 0 01.13-1.48 8.51 8.51 0 1015.17 6.62 8.51 8.51 0 01-6.79 3.37z"/><path class="cls-26" d="M440.54 259.31a8.51 8.51 0 11-8.54-8.51 8.51 8.51 0 018.54 8.51z"/><path class="cls-27" d="M437 255.76a3.55 3.55 0 11-3.54-3.54 3.54 3.54 0 013.54 3.54z"/><path class="cls-28" d="M433.63 264.16a8.51 8.51 0 01-8.51-8.51 8 8 0 01.13-1.48 8.51 8.51 0 1015.16 6.61 8.49 8.49 0 01-6.78 3.38z"/></svg>