<svg id="OBJECTS" xmlns="http://www.w3.org/2000/svg" xmlns:xlink="http://www.w3.org/1999/xlink" viewBox="0 0 352.43 399.96"><defs><style>.cls-1{fill:none;}.cls-2,.cls-21,.cls-9{fill:#fff;}.cls-17,.cls-3{fill:#efefef;}.cls-10,.cls-16,.cls-3,.cls-4,.cls-7,.cls-8{fill-rule:evenodd;}.cls-4{fill:#a7b1b5;}.cls-5{fill:#c8d9de;}.cls-6,.cls-7{fill:#8c979d;}.cls-8{opacity:0.05;}.cls-9{stroke:#d3dee2;stroke-width:0.25px;}.cls-21,.cls-9{stroke-miterlimit:10;}.cls-10{fill:#d8d8d8;}.cls-11{fill:#c0c8cc;}.cls-12{fill:#ef0c4d;}.cls-13{fill:#edd80f;}.cls-14{fill:#2be038;}.cls-15,.cls-16{fill:#a7b3b7;}.cls-18{fill:#753bbd;}.cls-19{fill:#dce1e6;}.cls-20{fill:#ededed;}.cls-21{stroke:#c2c4c6;stroke-width:0.1px;}.cls-22{clip-path:url(#clip-path);}.cls-23{fill:#eea987;}.cls-24{fill:#1b345b;}.cls-25{fill:#cdd4db;}.cls-26{fill:#5b3a05;}.cls-27{fill:#5e2f97;}.cls-28{fill:#a77860;}</style><clipPath id="clip-path"><path class="cls-1" d="M206.11,165.69,168,183.91c-1.83.88-3.31.1-3.31-1.73V144.06a6.07,6.07,0,0,1,3.31-4.9l38.12-18.22c1.83-.88,3.31-.1,3.31,1.73v38.12A6.07,6.07,0,0,1,206.11,165.69Z"/></clipPath></defs><title>create_profile_alternative</title><polygon class="cls-2" points="27.71 154.33 329.1 18.77 329.1 204.79 27.72 340.34 27.71 154.33"/><polygon class="cls-3" points="329.1 13.7 319.93 6.49 15.56 139.66 15.57 330.75 27.72 340.34 27.71 149.25 329.1 13.7"/><polygon class="cls-4" points="15.56 139.69 15.57 330.75 27.72 340.34 27.71 149.29 15.56 139.69"/><polygon class="cls-5" points="27.71 149.25 329.1 13.7 329.1 18.89 27.72 154.44 27.71 149.25"/><polygon class="cls-6" points="15.56 139.69 27.71 149.25 27.71 154.44 15.57 144.88 15.56 139.69"/><path class="cls-7" d="M27.72,340.1v7.27a4.39,4.39,0,0,0,3.77,4.23l1.29.16-1,.47A7.69,7.69,0,0,1,23.87,351L16,344.83a1.22,1.22,0,0,1-.47-.94V330.51Z"/><polygon class="cls-8" points="336.87 257.91 327.7 250.7 23.33 383.87 35.49 393.47 336.87 257.91"/><path class="cls-5" d="M27.72,340.27,329.1,204.72V216a3.78,3.78,0,0,1-2.2,3.52L32.79,351.77l-1.65.75a2.57,2.57,0,0,1-3.42-2.4v-9.85Z"/><path class="cls-9" d="M321,200.85,35.81,327.23V160a5.31,5.31,0,0,1,3-4.38L318,32c1.68-.74,3,0,3,1.69Z"/><polygon class="cls-10" points="321.01 53.65 35.81 180.04 35.81 170.32 321.01 43.93 321.01 53.65"/><path class="cls-11" d="M321,43.93,35.81,170.32V160a5.31,5.31,0,0,1,3-4.38L318,32c1.68-.74,3,0,3,1.69Z"/><ellipse class="cls-12" cx="43.38" cy="161.36" rx="1.82" ry="1.18" transform="translate(-109.59 94.14) rotate(-51.23)"/><ellipse class="cls-13" cx="47.82" cy="159.4" rx="1.82" ry="1.18" transform="translate(-106.41 96.86) rotate(-51.23)"/><ellipse class="cls-14" cx="52.25" cy="157.44" rx="1.82" ry="1.18" transform="translate(-103.22 99.59) rotate(-51.23)"/><path class="cls-15" d="M42.13,174c-.07.1-.17.15-.24.11l-1.38-.77c-.07,0-.07-.14,0-.24l1.38-2c.07-.09.18-.14.24-.1l.16.09c.07,0,.07.14,0,.24l-.86,1.2,2-.91c.1,0,.17,0,.17.1v.22a.28.28,0,0,1-.17.25l-2,.91.86.43c.07,0,.07.15,0,.24Z"/><path class="cls-15" d="M47.57,168.58c.06-.1.17-.15.24-.11l1.38.77c.07,0,.07.15,0,.24l-1.38,2c-.07.09-.18.14-.24.1l-.16-.08c-.07,0-.07-.15,0-.25l.86-1.2-2.05.91c-.09,0-.17,0-.17-.09v-.23a.3.3,0,0,1,.17-.25l2.05-.9-.86-.44c-.07,0-.07-.15,0-.24Z"/><path class="cls-15" d="M54.69,165.7v1.19a.11.11,0,0,1-.07.1l-1.19.53s-.07,0-.07,0v-.28a.11.11,0,0,1,.07-.1h0l.6-.24a.81.81,0,0,0-.86-.08,1.82,1.82,0,0,0-1.05,1.51c0,.57.47.83,1.05.58a2.17,2.17,0,0,0,.69-.57l0,0H54l.2.12s0,0,0,0a.11.11,0,0,1,0,.06,3,3,0,0,1-1,.82h0c-.81.36-1.47,0-1.47-.82a2.59,2.59,0,0,1,1.47-2.13h0a1.31,1.31,0,0,1,1.12,0l0-.48h0a.11.11,0,0,1,.07-.1l.28-.13S54.69,165.66,54.69,165.7Z"/><path class="cls-15" d="M60.79,164.25a.19.19,0,0,1,0,.07l-.18.3-.06.06h-.06l-1.67-.63a.06.06,0,0,0-.06,0l-.05,0L57,166.21l-.06,0a.06.06,0,0,1-.06,0l-.18-.14a.05.05,0,0,1,0-.05.15.15,0,0,1,0-.08l1.8-2.28a.66.66,0,0,1,.21-.17.35.35,0,0,1,.22,0l.64.24v-.52a.16.16,0,0,1,.08-.12l.4-.18c.05,0,.09,0,.09.05v1l.59.23A.05.05,0,0,1,60.79,164.25Zm-2,.09h.06l1.31.5V166a.22.22,0,0,1-.11.17l-.8.35c-.06,0-.11,0-.11-.07v-.68c0-.06-.06-.09-.12-.06l-.45.2a.19.19,0,0,0-.12.17v.68a.2.2,0,0,1-.11.16l-.8.36c-.06,0-.11,0-.11-.07v-1.16l1.31-1.66Z"/><path class="cls-16" d="M307.3,58.24,70,163.4c-1.86.83-3.37,0-3.37-1.88h0A5.92,5.92,0,0,1,70,156.64L307.3,51.49c1.87-.83,3.38,0,3.38,1.88h0A5.9,5.9,0,0,1,307.3,58.24Z"/><polygon class="cls-17" points="137.87 131.57 70.26 161.53 70.26 158.29 137.87 128.33 137.87 131.57"/><path class="cls-15" d="M316,49.85c.28-.12.51,0,.51.29a.91.91,0,0,1-.51.74c-.28.12-.51,0-.51-.29A.91.91,0,0,1,316,49.85Zm.51,1.54a.91.91,0,0,1-.51.74c-.28.13-.51,0-.51-.29a.88.88,0,0,1,.51-.73C316.27,51,316.5,51.11,316.5,51.39Zm-.51,1c.28-.13.51,0,.51.28a.88.88,0,0,1-.51.74c-.28.13-.51,0-.51-.28A.88.88,0,0,1,316,52.36Z"/><path class="cls-17" d="M306.92,55l-.5.71.12.63a.25.25,0,0,1-.22.26l-.62-.05-.62.6c-.11.11-.25.07-.22-.06l.11-.74-.5-.27c-.09,0,0-.22.09-.3l.69-.41.31-.76c.06-.14.22-.21.27-.12l.31.49.7-.21C307,54.73,307,54.86,306.92,55Zm-.27.06-.66.19-.29-.46-.3.73-.66.38.48.26-.11.7.59-.57.59,0-.12-.61Z"/><path class="cls-18" d="M198.21,239,171.3,251.87c-.62.3-1.13,0-1.13-.58v-9a2.07,2.07,0,0,1,1.13-1.66l26.91-12.86c.62-.3,1.12,0,1.12.58v9A2.06,2.06,0,0,1,198.21,239Z"/><path class="cls-2" d="M184,242.62c-.11.16-.28.24-.39.18l-.26-.13c-.1-.06-.1-.23,0-.39l1.76-2.6-1.76-.92c-.1-.06-.1-.23,0-.39l.26-.38c.11-.16.28-.24.39-.19l2.21,1.16c.11,0,.11.23,0,.38Z"/><path class="cls-19" d="M215,175.73l-55.88,26.71c-.63.3-1.14,0-1.14-.59v-6.93a2.11,2.11,0,0,1,1.14-1.69L215,166.52c.63-.3,1.14,0,1.14.59V174A2.11,2.11,0,0,1,215,175.73Z"/><path class="cls-20" d="M230.29,187.21l-91.08,43.54c-.45.22-.83,0-.83-.43V217.63a1.54,1.54,0,0,1,.83-1.23l91.08-43.54c.46-.22.83,0,.83.43V186A1.52,1.52,0,0,1,230.29,187.21Z"/><path class="cls-20" d="M230.29,206.25,139.21,249.8c-.45.21-.83,0-.83-.44V236.67a1.54,1.54,0,0,1,.83-1.22l91.08-43.55c.46-.21.83,0,.83.44V205A1.52,1.52,0,0,1,230.29,206.25Z"/><path class="cls-21" d="M206.11,165.69,168,183.91c-1.83.88-3.31.1-3.31-1.73V144.06a6.07,6.07,0,0,1,3.31-4.9l38.12-18.22c1.83-.88,3.31-.1,3.31,1.73v38.12A6.07,6.07,0,0,1,206.11,165.69Z"/><g class="cls-22"><path class="cls-23" d="M183.06,137.79s-6.52,4.2-6.58,15.27,4.13,10.12,10.47,5.47c3.82-2.8,7.41-9.93,6-18.77S183.06,137.79,183.06,137.79Z"/><path class="cls-19" d="M182.2,164.57s-9,7.55-10.31,10.23-.48,20.66.29,26.87,2.87,19.38,2.36,21.54l20.88-5.39s6.71-27.59,6.9-31.58,5.11-24.47,2.74-24.81-12.64-1.17-12.64-1.17Z"/><path class="cls-24" d="M186.84,204.92c0,1.05.12,2.11.18,3.19h0c.75,11.77,1.85,23.92,1.85,23.92,1.53.54,20.87-13.2,20.87-13.2s-2.38-2.09-4.68-10-.5-17.29,1.89-33,.41-14.67.41-14.67l-15-1c-1,4.19-4.94,19.59-5.88,27.78C186.21,191,186.42,197.67,186.84,204.92Z"/><path class="cls-24" d="M182.06,164.66a185,185,0,0,0-6.2,25.67C174,202.92,174.07,224,172,225.54s-1.41.84-1.41.84.38-13,.57-17.3c.41-9.66-1.35-30.14-.53-32.68S177.33,167.77,182.06,164.66Z"/><path class="cls-23" d="M182.42,162.73a6.63,6.63,0,0,1-.21,1.83s1.14,3.93,10.21-4.31a24.14,24.14,0,0,1,0-12.27L182.21,159.2s.12,1,.18,2.1C182.42,161.76,182.43,162.26,182.42,162.73Z"/><path class="cls-25" d="M192.05,158.65a43.26,43.26,0,0,1-7.16,5.49l1.75,2.89,5.78-6.77Z"/><path class="cls-25" d="M184.89,164.14s-2.51.36-2.49-.87l-.34,1.39,1,3.45Z"/><path class="cls-26" d="M177.26,147a8.1,8.1,0,0,1-.5-6.54c1.32-3.5,4.77-4,6.34-4.37s4.56-5.33,9.83-3.59,3.71,7,1.37,13.39-2.63,7-2.63,7,0-5.39-.65-6.05-2.54-.26-3.23-.1c-.14,0-.17-.11-.09-.29.46-.95,1.53-3.52-.13-3.59C185.53,142.72,181.3,146.71,177.26,147Z"/><path class="cls-23" d="M190.21,144.35c.28-.95,1.65-2.53,2.34-1.33s-1.11,4.74-2.08,5.21S189.57,146.53,190.21,144.35Z"/><path class="cls-27" d="M184.89,164.14,183.58,167s.61.41,2.55-.82Z"/><path class="cls-18" d="M183.86,167.08s-5.36,18.33-5.4,29.55a135.85,135.85,0,0,0,.84,17.47l1.18,1.64,1.72-2.83S181,181,185.75,166.41C185.75,166.41,184.06,166.42,183.86,167.08Z"/><path class="cls-28" d="M182.39,161.3c0,.46,0,1,0,1.43,7.2-3.34,7.31-7.5,7.31-7.5C188.61,158.74,182.39,161.3,182.39,161.3Z"/></g></svg>