<svg id="OBJECTS" xmlns="http://www.w3.org/2000/svg" viewBox="0 0 640 560"><defs><style>.cls-14{fill-rule:evenodd}.cls-3{opacity:.05}.cls-4{fill:#d4d9dd}.cls-5{fill:#efefef}.cls-6{fill:#dce1e6}.cls-7{fill:#c8d9de}.cls-8{fill:#8c979d}.cls-14,.cls-9{fill:#fff}.cls-10{fill:#f1f1f1}.cls-27{fill:#753bbd}.cls-29{fill:#5e2f97}.cls-19{fill:#94a0a4}.cls-20{fill:#778285}.cls-21{fill:#a6afb2}.cls-22{fill:#add761}.cls-23{fill:#c6e885}.cls-24{fill:#89ae43}.cls-26{fill:#582ba0}</style></defs><path d="M20 437.91l158.13 114.26a41.2 41.2 0 0042.7 3.59l57.75-28.85a39.92 39.92 0 0142.81 4.57l.53.43a41.2 41.2 0 0046 3.89c33.42-18.71 74.17-41.87 101.77-57.32A41.18 41.18 0 01501 474.8l56.61 10a77.75 77.75 0 0063.47-17l3.7-3.11.41-.35c19.84-17 19.41-47.83-.41-64.81L509 300.24a202.78 202.78 0 00-129.69-48.76l-66.2-.73A298.12 298.12 0 00193 276L28.6 348.36c-33.95 18.26-38.47 65.15-8.6 89.55z" opacity=".05" fill-rule="evenodd"/><path d="M20 410.78L178.13 525a41.18 41.18 0 0042.7 3.6l57.75-28.85a39.9 39.9 0 0142.81 4.57l.53.42a41.2 41.2 0 0046 3.9c33.42-18.71 74.17-41.87 101.77-57.33a41.22 41.22 0 0131.31-3.64l56.61 10a77.75 77.75 0 0063.47-17l3.7-3.11.41-.35c19.84-17 19.41-47.83-.41-64.81L509 273.11a202.73 202.73 0 00-129.69-48.76l-66.2-.73A298.12 298.12 0 00193 248.88L28.6 321.23c-33.95 18.26-38.47 65.15-8.6 89.55z" fill="#ba9dde" fill-rule="evenodd"/><path class="cls-3" d="M199.07 508.37l-52.89-31.8a10 10 0 01.09-17.23l19.64-11.52a10 10 0 00-.06-17.32l-51.9-30a10 10 0 01-.07-17.31l238.87-140.43a10 10 0 0110-.08l103.36 62.2a27 27 0 01.17 46.19l-50.73 31a10 10 0 00.13 17.32L452 420.16a10 10 0 01.22 17.26l-82.91 50.34a10 10 0 01-10.24.1l-52.16-30.42a10.05 10.05 0 00-10.09 0l-87.51 51a10 10 0 01-10.24-.07z"/><path class="cls-4" d="M343.62 366.02l-66.56-38.42V61.61l66.56 38.42v265.99z"/><path class="cls-5" d="M377.33 80.6l-66.55-38.42-33.72 19.46 66.56 38.43 33.71-19.47z"/><path class="cls-6" d="M376.95 346.9l-33.27 19.22V100.13l33.27-19.21V346.9z"/><path class="cls-7" d="M376.95 89.47l-33.27 19.2v-8.54l33.27-19.21v8.55z"/><path class="cls-8" d="M343.62 108.58l-66.56-38.42v-8.55l66.56 38.42v8.55z"/><path class="cls-9" d="M349.27 173.48l11.49-6.64v-28.16l-11.49 6.63v28.17zM349.27 205.31l11.49-6.63v-28.17l-11.49 6.64v28.16zM360.38 106.85l-11.49 6.63v28.17l11.49-6.64v-28.16zM373.61 99.17l-11.48 6.63v28.16l11.48-6.63V99.17zM362.13 137.68v28.16l11.49-6.63v-28.17l-11.49 6.64zM362.13 197.72l11.49-6.63v-28.16l-11.49 6.63v28.16zM349.27 268.98l11.49-6.63v-28.17l-11.49 6.64v28.16zM349.27 300.81l11.49-6.63v-28.16l-11.49 6.63v28.16zM360.38 202.35l-11.49 6.63v28.17l11.49-6.64v-28.16zM373.61 194.81l-11.48 6.63v28.16l11.48-6.63v-28.16zM362.13 261.48l11.49-6.63v-28.16l-11.49 6.63v28.16zM362.13 293.37l11.49-6.64v-28.16l-11.49 6.63v28.17zM360.38 297.85l-11.49 6.63v28.17l11.49-6.64v-28.16zM373.61 290.45l-11.48 6.63v28.16l11.48-6.63v-28.16z"/><path class="cls-10" d="M307.19 157.32l-11.49-6.64v-28.16l11.49 6.63v28.17zM307.19 189.15l-11.49-6.63v-28.17l11.49 6.64v28.16zM296.08 90.69l11.49 6.63v28.16l-11.49-6.63V90.69zM282.85 83l11.48 6.64v28.16l-11.48-6.63V83zM294.33 121.52v28.16l-11.49-6.63v-28.17l11.49 6.64zM294.33 181.56l-11.49-6.63v-28.17l11.49 6.64v28.16zM307.19 252.82l-11.49-6.64v-28.16l11.49 6.63v28.17zM307.19 284.65l-11.49-6.63v-28.17l11.49 6.64v28.16zM296.08 186.19l11.49 6.63v28.16l-11.49-6.63v-28.16zM282.85 178.65l11.48 6.63v28.16l-11.48-6.63v-28.16zM294.33 245.32l-11.49-6.63v-28.17l11.49 6.64v28.16zM294.33 277.2l-11.49-6.63V242.4l11.49 6.64v28.16zM296.08 281.69l11.49 6.63v28.17l-11.49-6.64v-28.16zM282.85 274.29l11.48 6.63v28.16l-11.48-6.63v-28.16zM335.06 172.86l-11.49-6.64v-28.16l11.49 6.63v28.17zM335.06 204.69l-11.49-6.63v-28.17l11.49 6.64v28.16zM323.95 106.23l11.49 6.63v28.16l-11.49-6.63v-28.16zM310.71 98.54l11.49 6.64v28.16l-11.49-6.63V98.54zM322.2 137.06v28.16l-11.49-6.63v-28.17l11.49 6.64zM322.2 197.1l-11.49-6.63V162.3l11.49 6.64v28.16zM335.06 268.36l-11.49-6.63v-28.17l11.49 6.63v28.17zM335.06 300.19l-11.49-6.63v-28.17l11.49 6.64v28.16zM323.95 201.73l11.49 6.63v28.16l-11.49-6.63v-28.16zM310.71 194.19l11.49 6.63v28.16l-11.49-6.63v-28.16zM322.2 260.86l-11.49-6.63v-28.17l11.49 6.64v28.16zM322.2 292.74l-11.49-6.63v-28.17l11.49 6.64v28.16zM323.95 297.23l11.49 6.63v28.17l-11.49-6.64v-28.16zM310.71 289.83l11.49 6.63v28.16l-11.49-6.63v-28.16z"/><path fill="#dce1e6" fill-rule="evenodd" d="M331.42 369.11l-70.77 42.52V85.02l70.77-42.52v326.61z"/><path fill="#d4d9dd" fill-rule="evenodd" d="M260.65 411.76l-70.77-42.52V42.62l70.77 42.52v326.62z"/><path fill="#efefef" fill-rule="evenodd" d="M260.65 85.14l-70.77-42.52L260.65.1l70.77 42.4-70.77 42.64z"/><path class="cls-9" d="M316.89 377.72l-41.71 25.06v-45.55c0-11.51 9.34-26.46 20.85-33.38 11.52-6.92 20.86-3.19 20.86 8.32z"/><path class="cls-14" d="M287.85 121.41l-14.39 8.64v-27.66l14.39-8.65v27.67zM305.76 110.64l-14.38 8.65V91.62l14.38-8.64v27.66zM287.85 152.59l-14.39 8.65v-27.67l14.39-8.64v27.66zM305.76 141.83l-14.38 8.65v-27.67l14.38-8.64v27.66zM287.85 183.78l-14.39 8.65v-27.67l14.39-8.64v27.66zM305.76 173.02l-14.38 8.65V154l14.38-8.64v27.66zM287.85 214.98l-14.39 8.64v-27.66l14.39-8.65v27.67zM305.76 204.21l-14.38 8.65v-27.67l14.38-8.64v27.66zM323.67 99.88l-14.38 8.64V80.86l14.38-8.64v27.66zM323.67 131.07l-14.38 8.64v-27.66l14.38-8.64v27.66zM323.67 162.26l-14.38 8.64v-27.66l14.38-8.64v27.66zM323.67 193.45l-14.38 8.64v-27.66l14.38-8.64v27.66zM287.85 246.17l-14.39 8.64v-27.66l14.39-8.65v27.67zM305.76 235.4l-14.38 8.65v-27.67l14.38-8.64v27.66zM287.85 277.36L273.46 286v-27.67l14.39-8.64v27.67zM305.76 266.59l-14.38 8.65v-27.67l14.38-8.64v27.66zM287.85 308.55l-14.39 8.64v-27.67l14.39-8.64v27.67zM305.76 297.78l-14.38 8.65v-27.67l14.38-8.64v27.66zM323.67 224.64l-14.38 8.64v-27.66l14.38-8.64v27.66zM323.67 255.83l-14.38 8.65v-27.67l14.38-8.64v27.66zM323.67 287.02l-14.38 8.65V268l14.38-8.64v27.66zM214.55 108.52l-14.39-8.64V72.22l14.39 8.64v27.66zM232.46 119.29l-14.38-8.65V82.98l14.38 8.64v27.67zM214.55 139.71l-14.39-8.64v-27.66l14.39 8.64v27.66zM232.46 150.48l-14.38-8.65v-27.66l14.38 8.64v27.67zM214.55 170.9l-14.39-8.64V134.6l14.39 8.64v27.66zM232.46 181.67l-14.38-8.65v-27.66l14.38 8.64v27.67zM214.55 202.09l-14.39-8.64v-27.66l14.39 8.64v27.66zM232.46 212.86l-14.38-8.65v-27.66l14.38 8.64v27.67zM250.37 130.05l-14.38-8.64V93.74l14.38 8.65v27.66zM250.37 161.24l-14.38-8.65v-27.66l14.38 8.64v27.67zM250.37 192.43l-14.38-8.65v-27.66l14.38 8.64v27.67zM250.37 223.62l-14.38-8.64v-27.67l14.38 8.65v27.66zM214.55 233.28l-14.39-8.64v-27.66l14.39 8.64v27.66zM232.46 244.05l-14.38-8.65v-27.66l14.38 8.64v27.67zM214.55 264.48l-14.39-8.65v-27.66l14.39 8.64v27.67zM232.46 275.24l-14.38-8.65v-27.66l14.38 8.64v27.67zM214.55 295.67l-14.39-8.65v-27.66l14.39 8.64v27.67zM232.46 306.43l-14.38-8.65v-27.66l14.38 8.64v27.67zM250.37 254.81l-14.38-8.64V218.5l14.38 8.65v27.66zM250.37 286l-14.38-8.64v-27.67l14.38 8.64V286zM250.37 317.19l-14.38-8.64v-27.67l14.38 8.64v27.67z"/><path fill="#753bbd" fill-rule="evenodd" d="M338 304.74l-70.76 42.52v-7.81L338 296.94v7.8z"/><path fill="#5e2f97" fill-rule="evenodd" d="M267.24 347.26l-6.59-3.94v-7.8l6.59 3.93v7.81z"/><path fill="#7544c1" fill-rule="evenodd" d="M267.24 339.45l-6.59-3.93 70.77-41.45 6.58 2.87-70.76 42.51z"/><path class="cls-9" d="M291.94 330.89l-1.24.78V327l1.24-.78zM294.82 326.24a3.52 3.52 0 011.38-.56c.23 0 .34.3.34.82v.29a2.33 2.33 0 010 .29 1.91 1.91 0 01-.22.62 2.93 2.93 0 01-.6.73 8.66 8.66 0 01-1.17.87l-.43.26-.38.22a1.63 1.63 0 01-.63.22c-.36 0-.54-.32-.54-1l1.19-.75c0 .23.06.35.17.34a1.8 1.8 0 00.62-.3 3.42 3.42 0 00.6-.45.63.63 0 00.17-.47c0-.19 0-.29-.1-.28a2.29 2.29 0 00-.55.26l-.68.38-.36.19a1.76 1.76 0 01-.57.19q-.48 0-.48-.87a2.3 2.3 0 01.53-1.54 3.17 3.17 0 01.62-.57l.38-.27.44-.28.37-.23.35-.2a2.45 2.45 0 01.6-.24.43.43 0 01.41.13 1.11 1.11 0 01.15.66v.19l-1.19.75c0-.22-.05-.33-.16-.32a2.05 2.05 0 00-.53.28 2.45 2.45 0 00-.62.48.65.65 0 00-.11.37c0 .17 0 .26.13.25a1.1 1.1 0 00.38-.16zM299.27 323.45a3.37 3.37 0 011.37-.57c.23 0 .34.3.34.82v.3a2.33 2.33 0 010 .29 1.82 1.82 0 01-.22.63 3.28 3.28 0 01-.59.72 8.84 8.84 0 01-1.18.87c-.18.12-.33.2-.43.26l-.38.22a1.63 1.63 0 01-.63.22c-.35 0-.53-.32-.53-1l1.19-.75c0 .23.05.35.16.35a2.17 2.17 0 00.62-.31 3 3 0 00.61-.45.66.66 0 00.16-.46c0-.2 0-.29-.1-.29a2.29 2.29 0 00-.55.26l-.68.38a3.28 3.28 0 01-.36.19 1.44 1.44 0 01-.57.19q-.48 0-.48-.87a2.32 2.32 0 01.53-1.54 3.47 3.47 0 01.62-.56l.38-.28.44-.28.37-.22a2.93 2.93 0 01.35-.21 2.35 2.35 0 01.61-.24.41.41 0 01.4.14 1.07 1.07 0 01.15.65v.19l-1.19.75c0-.22-.05-.32-.16-.31a1.62 1.62 0 00-.53.27 2.67 2.67 0 00-.62.49.61.61 0 00-.11.36c0 .17.05.26.13.26a1.4 1.4 0 00.38-.17zM305.61 317.63v3.1a2.63 2.63 0 01-.46 1.55 5.55 5.55 0 01-1.49 1.27c-.88.55-1.45.78-1.73.7a.4.4 0 01-.27-.31 2.81 2.81 0 01-.06-.68v-3.11l1.24-.78v3.08c0 .24.07.35.22.33a.84.84 0 00.25-.1l.35-.21a2.26 2.26 0 00.55-.44 1 1 0 00.16-.6v-3zM307.63 318.22l2-1.25v.87l-2 1.25v.9l2.16-1.36v1l-3.4 2.14v-4.65l3.35-2.12v1l-2.11 1.33zM310.55 314.52l2.39-1.51a4.71 4.71 0 01.71-.38 1.06 1.06 0 01.5-.11c.26 0 .4.34.4.89v.53a1.7 1.7 0 01-.1.47 2.47 2.47 0 01-.77 1v.05c.56-.34.84-.24.84.29v.94l-1.24.78v-.65c0-.4-.16-.48-.51-.26l-1 .6v1.24l-1.24.78zm2.2 1a1.1 1.1 0 00.46-.46.79.79 0 00.05-.25.81.81 0 000-.16v-.18c0-.21 0-.33-.11-.36s-.2 0-.41.15l-1 .6v1.26z"/><path fill="#8c979d" fill-rule="evenodd" d="M364.9 455.25l-89.04-52.92 40.59-24.4 89.04 52.85-40.59 24.47z"/><path class="cls-19" d="M354.2 394.95l101.31-58.51v-15.79L354.2 379.17v15.78z"/><path class="cls-20" d="M354.2 394.95l-13.67-7.89v-15.78l13.67 7.89v15.78z"/><path class="cls-21" d="M441.76 312.81l13.66 7.89-101.22 58.46-13.67-7.89 101.23-58.46z"/><path class="cls-22" d="M371.38 361.9A12.39 12.39 0 11359 349.51a12.39 12.39 0 0112.38 12.39z"/><path class="cls-23" d="M366.22 356.74a5.16 5.16 0 11-5.16-5.16 5.16 5.16 0 015.16 5.16z"/><path class="cls-24" d="M361.32 369a12.39 12.39 0 01-12.39-12.39 12.73 12.73 0 01.19-2.15 12.39 12.39 0 1022.07 9.63 12.36 12.36 0 01-9.87 4.91z"/><path class="cls-22" d="M409.94 339.48a12.39 12.39 0 11-12.39-12.38 12.39 12.39 0 0112.39 12.38z"/><path class="cls-23" d="M404.77 334.32a5.16 5.16 0 11-5.16-5.16 5.16 5.16 0 015.16 5.16z"/><path class="cls-24" d="M399.87 346.54a12.39 12.39 0 01-12.39-12.39 12.52 12.52 0 01.19-2.14 12.39 12.39 0 1022.08 9.62 12.4 12.4 0 01-9.88 4.91z"/><path class="cls-22" d="M446.32 319.43a12.39 12.39 0 11-12.39-12.38 12.39 12.39 0 0112.39 12.38z"/><path class="cls-23" d="M441.16 314.27a5.17 5.17 0 11-5.16-5.16 5.16 5.16 0 015.16 5.16z"/><path class="cls-24" d="M436.26 326.49a12.39 12.39 0 01-12.39-12.39 11.59 11.59 0 01.19-2.14 12.38 12.38 0 1022.07 9.62 12.36 12.36 0 01-9.87 4.91z"/><path class="cls-4" d="M218.43 436.83l-66.55-38.43V132.42l66.55 38.42v265.99z"/><path class="cls-5" d="M252.14 151.41l-66.55-38.42-33.71 19.46 66.55 38.43 33.71-19.47z"/><path class="cls-6" d="M251.77 417.71l-33.28 19.22V170.94l33.28-19.22v265.99z"/><path class="cls-7" d="M251.77 160.27l-33.28 19.21v-8.54l33.28-19.22v8.55z"/><path class="cls-8" d="M218.43 179.39l-66.55-38.43v-8.54l66.55 38.42v8.55z"/><path class="cls-9" d="M224.08 244.29l11.49-6.64v-28.16l-11.49 6.63v28.17zM224.08 276.12l11.49-6.63v-28.17l-11.49 6.64v28.16zM235.19 177.66l-11.48 6.63v28.16l11.48-6.63v-28.16zM248.43 169.97l-11.49 6.64v28.16l11.49-6.63v-28.17zM236.94 208.49v28.16l11.49-6.63v-28.17l-11.49 6.64zM236.94 268.53l11.49-6.63v-28.17l-11.49 6.64v28.16zM224.08 339.79l11.49-6.64v-28.16l-11.49 6.63v28.17zM224.08 371.62l11.49-6.63v-28.17l-11.49 6.64v28.16zM235.19 273.16l-11.48 6.63v28.16l11.48-6.63v-28.16zM248.43 265.62l-11.49 6.63v28.16l11.49-6.63v-28.16zM236.94 332.29l11.49-6.63v-28.17l-11.49 6.64v28.16zM236.94 364.17l11.49-6.63v-28.17l-11.49 6.64v28.16zM235.19 368.66l-11.48 6.63v28.16l11.48-6.63v-28.16zM248.43 361.25l-11.49 6.64v28.16l11.49-6.63v-28.17z"/><path class="cls-10" d="M182.01 228.13l-11.49-6.64v-28.16l11.49 6.63v28.17zM182.01 259.96l-11.49-6.64v-28.16l11.49 6.63v28.17zM170.9 161.49l11.48 6.64v28.16l-11.48-6.63v-28.17zM157.66 153.81l11.49 6.63v28.17l-11.49-6.64v-28.16zM169.15 192.32v28.17l-11.49-6.64v-28.16l11.49 6.63zM169.15 252.37l-11.49-6.63v-28.17l11.49 6.64v28.16zM182.01 323.63l-11.49-6.64v-28.16l11.49 6.63v28.17zM182.01 355.46l-11.49-6.63v-28.17l11.49 6.64v28.16zM170.9 257l11.48 6.63v28.16l-11.48-6.63V257zM157.66 249.45l11.49 6.64v28.16l-11.49-6.63v-28.17zM169.15 316.13l-11.49-6.63v-28.17l11.49 6.63v28.17zM169.15 348.01l-11.49-6.63v-28.17l11.49 6.64v28.16zM170.9 352.5l11.48 6.63v28.16l-11.48-6.63V352.5zM157.66 345.09l11.49 6.64v28.16l-11.49-6.63v-28.17zM209.88 243.67l-11.49-6.64v-28.16l11.49 6.63v28.17zM209.88 275.5l-11.49-6.63V240.7l11.49 6.64v28.16zM198.76 177.03l11.49 6.64v28.16l-11.49-6.63v-28.17zM185.53 169.35l11.49 6.64v28.16l-11.49-6.63v-28.17zM197.01 207.87v28.16l-11.48-6.63v-28.17l11.48 6.64zM197.01 267.91l-11.48-6.63v-28.17l11.48 6.64v28.16zM209.88 339.17l-11.49-6.64v-28.16l11.49 6.63v28.17zM209.88 371l-11.49-6.63V336.2l11.49 6.64V371zM198.76 272.54l11.49 6.63v28.16l-11.49-6.63v-28.16zM185.53 264.99l11.49 6.64v28.16l-11.49-6.63v-28.17zM197.01 331.67l-11.48-6.63v-28.17l11.48 6.64v28.16zM197.01 363.55l-11.48-6.63v-28.17l11.48 6.64v28.16zM198.76 368.04l11.49 6.63v28.16l-11.49-6.63v-28.16zM185.53 360.63l11.49 6.64v28.16l-11.49-6.63v-28.17z"/><path class="cls-19" d="M198.86 485.6l101.31-58.51V411.3l-101.31 58.51v15.79z"/><path class="cls-20" d="M198.86 485.6l-13.66-7.89v-15.78l13.66 7.88v15.79z"/><path class="cls-21" d="M286.42 403.45l13.67 7.9-101.23 58.46-13.66-7.89 101.22-58.47z"/><path class="cls-22" d="M216 452.55a12.39 12.39 0 11-12.38-12.39A12.39 12.39 0 01216 452.55z"/><path class="cls-23" d="M210.88 447.39a5.16 5.16 0 11-5.16-5.16 5.16 5.16 0 015.16 5.16z"/><path class="cls-24" d="M206 459.61a12.39 12.39 0 01-12.39-12.39 12.73 12.73 0 01.19-2.15 12.39 12.39 0 1022.08 9.63 12.4 12.4 0 01-9.88 4.91z"/><path class="cls-22" d="M254.6 430.13a12.39 12.39 0 11-12.39-12.38 12.39 12.39 0 0112.39 12.38z"/><path class="cls-23" d="M249.44 425a5.16 5.16 0 11-5.16-5.16 5.16 5.16 0 015.16 5.16z"/><path class="cls-24" d="M244.54 437.19a12.39 12.39 0 01-12.39-12.39 12.52 12.52 0 01.19-2.14 12.39 12.39 0 009.87 19.86 12.39 12.39 0 0012.2-10.24 12.36 12.36 0 01-9.87 4.91z"/><path class="cls-22" d="M291 410.08a12.39 12.39 0 11-12.4-12.38 12.39 12.39 0 0112.4 12.38z"/><path class="cls-23" d="M285.82 404.92a5.16 5.16 0 11-5.16-5.16 5.16 5.16 0 015.16 5.16z"/><path class="cls-24" d="M280.92 417.14a12.39 12.39 0 01-12.39-12.39 12.52 12.52 0 01.19-2.14 12.38 12.38 0 1022.07 9.62 12.36 12.36 0 01-9.87 4.91z"/><g id="_Grup_" data-name="&lt;Grup&gt;"><g id="_Grup_2" data-name="&lt;Grup&gt;"><path id="_Yol_" data-name="&lt;Yol&gt;" fill="#693aad" d="M516.58 394.38v71.38l96.16-55.51v-71.38l-96.16 55.51z"/><path id="_Yol_2" data-name="&lt;Yol&gt;" class="cls-26" d="M516.58 465.76l54.4-67.79 41.76 12.28-41.22-7.94-54.94 63.45z"/><path id="_Yol_3" data-name="&lt;Yol&gt;" class="cls-26" d="M516.58 394.38l54.95 19.83 41.21-75.34-96.16 55.51z"/><path id="_Yol_4" data-name="&lt;Yol&gt;" class="cls-27" d="M516.58 394.38l54.95 15.87 41.21-71.38-96.16 55.51z"/><path id="_Yol_5" data-name="&lt;Yol&gt;" fill="#7544c1" d="M612.74 338.87l-6.87-3.97-96.16 55.52 6.87 3.96 96.16-55.51z"/><path id="_Yol_6" data-name="&lt;Yol&gt;" class="cls-29" d="M509.71 390.42l.01 71.37 6.86 3.97v-71.38l-6.87-3.96z"/><path id="_Yol_7" data-name="&lt;Yol&gt;" class="cls-3" d="M612.74 428.26l-6.87-3.96-96.16 55.52 6.87 3.96 96.16-55.52z"/></g></g><g id="_Grup_3" data-name="&lt;Grup&gt;"><path id="_Yol_8" data-name="&lt;Yol&gt;" class="cls-3" d="M601.11 339.66l-113.85 65.73a6.91 6.91 0 01-6.29 0l-49.66-28.64c-1.74-1-1.74-2.63 0-3.63l113.84-65.73a7 7 0 016.29 0L601.11 336c1.73 1 1.73 2.66 0 3.66z"/><g id="_Grup_4" data-name="&lt;Grup&gt;"><g id="_Grup_5" data-name="&lt;Grup&gt;"><path id="_Yol_9" data-name="&lt;Yol&gt;" class="cls-27" d="M597 324.1l-110.8 63.95a6.72 6.72 0 01-6.11 0l-46.49-26.84c-1.69-1-1.69-2.55 0-3.53l110.77-63.95a6.74 6.74 0 016.12 0L597 320.57c1.67.97 1.67 2.55 0 3.53z"/><path id="_Yol_10" data-name="&lt;Yol&gt;" class="cls-29" d="M560.44 307.73l8.63 4.89a2.08 2.08 0 001.84.11c.45-.26.36-.73-.2-1.06l-8.63-4.89a2 2 0 00-1.84-.11c-.45.26-.36.73.2 1.06z"/><path id="_Yol_11" data-name="&lt;Yol&gt;" class="cls-29" d="M568.8 307.53a2.37 2.37 0 012.14 0 .65.65 0 010 1.23 2.37 2.37 0 01-2.14 0 .65.65 0 010-1.23z"/><path id="_Yol_12" data-name="&lt;Yol&gt;" class="cls-29" d="M571.73 313.44a1.86 1.86 0 011.66 0c.46.27.46.7 0 1a1.86 1.86 0 01-1.66 0c-.46-.3-.46-.73 0-1z"/><path id="_Yol_13" data-name="&lt;Yol&gt;" class="cls-29" d="M457.64 373.19a7.29 7.29 0 006.59 0c1.82-1.05 1.82-2.76 0-3.81a7.32 7.32 0 00-6.59 0c-1.82 1.06-1.82 2.76 0 3.81z"/></g><g id="_Grup_6" data-name="&lt;Grup&gt;"><path id="_Yol_14" data-name="&lt;Yol&gt;" d="M444.53 354.13l91.57-52.87a4.51 4.51 0 014.08 0l43.75 25.26a1.24 1.24 0 010 2.35l-91.58 52.87a4.49 4.49 0 01-4.07 0l-43.75-25.26a1.24 1.24 0 010-2.35z" fill="#d1bdef"/></g><g id="_Grup_7" data-name="&lt;Grup&gt;"><path id="_Yol_15" data-name="&lt;Yol&gt;" class="cls-29" d="M598.25 322.34v6.85A2.1 2.1 0 01597 331l-110.8 64a6.32 6.32 0 01-3.06.73 7.2 7.2 0 01-1.14-.09 5.8 5.8 0 01-1.92-.64l-46.49-26.85a2.21 2.21 0 01-1.27-1.75v-6.79a2.3 2.3 0 001.26 1.64l1.72 1 .71.42 44.06 25.43a5.86 5.86 0 001.92.63 7.2 7.2 0 001.14.09 6.32 6.32 0 003.06-.73l110.78-64a2.12 2.12 0 001.25-1.74z"/><path id="_Yol_16" data-name="&lt;Yol&gt;" class="cls-29" d="M486.2 395L597 331a2.1 2.1 0 001.25-1.82v-6.85a2.12 2.12 0 01-1.25 1.74l-110.78 64a6.32 6.32 0 01-3.06.73v6.92a6.32 6.32 0 003.04-.72z"/></g><path id="_Yol_17" data-name="&lt;Yol&gt;" class="cls-3" d="M483.14 388.78v6.92a7.2 7.2 0 01-1.14-.09v-6.92a7.2 7.2 0 001.14.09z"/></g></g><path class="cls-27" d="M434.62 516l.08-.07.07-.07.07-.07.07-.07.07-.07.08-.07.07-.07.07-.07.07-.07.07-.07.08-.07.08-.07a.36.36 0 01.07-.07l.07-.07.07-.07.07-.07.22.12.07-.07.07-.07.07-.06.07-.07.08-.07.08-.07.07-.07.07-.07.07-.07.07-.07.08-.07.08-.07.07-.07.07-.07.07-.07.07-.07.08-.07.08-.07.07-.07.07-.07.07-.07.08-.07.07-.07.07-.07.07-.07.07-.07.08-.07a.36.36 0 01.07-.07l.07-.07.07-.07.07-.07.07-.07.08-.07.07-.07.07-.07.07-.07.39.51.07-.07.08-.07.07-.07.07-.07.07-.07.07-.07.08-.07.08-.07.07-.07.07-.07.07-.07.08-.07.08-.07a.36.36 0 01.07-.07l.07-.07.07-.07.07-.07.08-.07.07-.07.07-.06.07-.07.07-.07.07-.07.08-.07.07-.07.07-.07.07-.06.08-.07.08-.07.08-.07.07-.07.07-.07.07-.07.08-.06.08-.07.08-.07.07-.07.07-.07.07-.06.08-.07.08-.06.07-.07.07-.07.07-.07.08-.07.08-.07a.36.36 0 01.07-.07l.07-.07.07-.07.07-.07.08-.07.08-.07.07-.07.07-.07.07-.07.08-.07.08-.07.07-.07.07-.07.07-.07.07-.07.08-.06.08-.07.07-.07.07-.07.07-.07a.36.36 0 00.07-.07l.08-.07.08-.06.07-.07.07-.07.07-.07.08-.07.08-.06.07-.07.07-.07.07-.07.07-.07.08-.07.07-.07a.36.36 0 00.07-.07l.07-.07.07-.06.08-.07.08-.07.07-.07.07-.07.07-.06.07-.07.08-.07.08-.07.07-.07.07-.07.07-.07.07-.06.08-.07.07-.06.07-.07.07-.07.07-.07.08-.07.07-.06.07-.07.07-.07.07-.07.08-.07.07-.07.07-.07.07-.06.07-.07.07-.07.08-.07.07-.07.07-.07.07-.07.07-.06.08-.07.08-.07.07-.07.07-.07.07-.07.07-.07.08-.07a.36.36 0 01.07-.07l.07-.07.07-.07.07-.07.07-.07.08-.07a.36.36 0 01.07-.07l.07-.07.07-.07.08-.07.08-.07.07-.07.07-.07.07-.06.07-.07.08-.07.08-.07.07-.07.07-.07.07-.07.08-.07.08-.07a.36.36 0 01.07-.07l.07-.07.07-.07a.36.36 0 00.07-.07l.08-.07.08-.07.07-.07.07-.07.07-.07.07-.07.08-.06.08-.07.07-.07.07-.07.07-.07.08-.07.08-.07.07-.07.07-.07.07-.07.08-.07.08-.07.07-.07.07-.07.07-.06.07-.07.08-.07.08-.07.07-.07.07-.07.07-.07a.36.36 0 00.07-.07l.08-.07.08-.07.07-.07.07-.07.07-.07.07-.07.08-.07a.36.36 0 01.07-.07l.07-.07.07-.07.07-.07.08-.07.08-.07.07-.07.07-.07.07-.07.08-.07.08-.07.07-.07.07-.07s37-34.77 35.46-59.66-20.93-54.08-43.27-65.18c-11.18-5.56-21-5.52-27.81-1l-.08.06-.08.06-.08.05-.09.05-.08.06-.08.05-.08.05-.09.06h-.07l-.09.06-.08.05-.08.06-.08.05-.08.05-.08.06h-.09l-.08.06-.08.05-.08.06-.08.05-.09.06-.08.05h-.08l-.08.06-.08.05-.09.06-.07.05-.09.06-.08.05-.08.05-.09.06h-.08l-.08.06-.08.05-.08.05-.08.06-.09.05-.08.06h-.08l-.08.05-.08.06-.08.05-.09.06-.08.05-.08.06h-.08l-.08.06-.08.05-.09.05-.08.06-.08.05-.08.06-.08.05h-.08l-.09.06-.08.06-.08.05-.09.06-.07.05-.09.05-.08.06h-.08l-.08.05-.08.06-.08.05-.09.06-.08.05-.08.06h-.08l-.08.05-.09.06-.08.05-.08.06-.08.05-.08.06-.08.05h-.09l-.08.06-.08.05-.08.05-.09.06-.08.05-.08.06h-.08l-.09.06-.07.05-.08.06-.09.05-.08.06-.08.05-.09.06h-.07l-.09.05-.08.05-.08.06-.08.06-.09.05-.08.05-.08.06h-.08l-.08.06-.08.05-.09.06-.08.05-.08.05-.08.06h-.08l-.08.05-.08.06-.09.05-.08.06-.08.05-.08.06-.08.05-.09.06-.08.05-.08.06-.08.05-.08.05-.09.06-.08.05-.08.06h-.08l-.08.05-.08.06-.09.05-.08.06-.08.05h-.08l-.09.06-.07.05-.09.06-.08.05-.08.06-.08.05-.08.06-.09.05h-.08l-.08.06-.08.05-.09.06-.07.05-.09.05-.08.06-.08.06h-.08l-.08.05-.09.06-.08.05-.08.06-.08.05h-.08l-.08.06-.09.05-.08.05-.08.06-.08.06-.08.05-.09.05-.08.06h-.08l-.08.05-.09.06-.07.05-.09.06-.08.05-.08.06h-.08l-.09.06-.07.05-.09.06-.08.05-.08.05-.08.06h-.08l-.09.06-.08.05-.08.05-.08.06-.09.05-.07.06-.09.05-.08.06h-.08l-.08.05-.08.06-.09.05-.08.06-.08.05-.08.06h-.08l-.08.05-.09.06-.08.05-.08.06-.08.05-.09.06h-.08l-.08.05-.08.06-.08.05-.09.06-.07.05-.09.05-.08.06h-.08l-.08.06-.09.05-.08.06-.08.05-.08.05-.08.06h-.08l-.09.06-.08.05-.08.06-.08.05-.08.06-.08.05-.09.06h-.08l-.08.05-.08.06-.08.05-.09.06-.08.05-.08.05-.08.06h-.09l-.07.06-.09.05-.08.06-.08.05-.08.05-.08.06h-.09l-.08.06-.08.05-.08.05-.08.06-.09.05-.08.06-.08.05-.08.06-.08.05-.08.06-.08.05-.09.05-.08.06-.08.05c-6.84 4.51-10.68 13.54-9.9 26C390.75 441 434.62 516 434.62 516zm26.32-54a33 33 0 01-8.49-2.95c-17.57-8.73-32.81-31.69-34-51.28a33.41 33.41 0 01.58-9 33.25 33.25 0 018.49 3c17.58 8.73 32.82 31.69 34 51.28a33 33 0 01-.58 8.95z"/><path class="cls-29" d="M397.88 421.39c-1.23-19.59 12-28.39 29.6-19.66s32.82 31.69 34 51.28-12 28.39-29.6 19.65-32.78-31.66-34-51.27zm-8.69-5.27C390.75 441 434.62 516 434.62 516s37-34.77 35.46-59.67-20.92-54.07-43.26-65.17-39.18.06-37.63 24.96z"/><path id="_Yol_18" data-name="&lt;Yol&gt;" class="cls-3" d="M461.79 508.75a3.76 3.76 0 00-3.74 0L430 524.88a3.74 3.74 0 000 6.49 3.76 3.76 0 003.74 0l28.05-16.14a3.75 3.75 0 000-6.48z"/></svg>